<?xml version="1.0" standalone="no"?>
<!DOCTYPE svg PUBLIC "-//W3C//DTD SVG 20010904//EN"
 "http://www.w3.org/TR/2001/REC-SVG-20010904/DTD/svg10.dtd">
<svg version="1.0" xmlns="http://www.w3.org/2000/svg"
 width="5000.000000pt" height="3334.000000pt" viewBox="0 0 5000.000000 3334.000000"
 preserveAspectRatio="xMidYMid meet">

<g transform="translate(0.000000,3334.000000) scale(0.100000,-0.100000)"
fill="#dddddd" stroke="none">
<path d="M3957 33196 c-131 -47 -218 -184 -204 -320 12 -114 81 -211 185 -259
36 -17 66 -22 127 -21 99 0 160 28 228 104 60 66 81 130 75 224 -8 118 -64
203 -170 256 -51 25 -73 30 -132 30 -39 -1 -88 -7 -109 -14z"/>
<path d="M9537 33196 c-131 -47 -218 -184 -204 -320 12 -114 81 -211 185 -259
36 -17 66 -22 127 -21 99 0 160 28 228 104 60 66 81 130 75 224 -8 118 -64
203 -170 256 -51 25 -73 30 -132 30 -39 -1 -88 -7 -109 -14z"/>
<path d="M15127 33196 c-131 -47 -218 -184 -204 -320 12 -114 81 -211 185
-259 36 -17 66 -22 127 -21 99 0 160 28 228 104 60 66 81 130 75 224 -8 118
-64 203 -170 256 -51 25 -73 30 -132 30 -39 -1 -88 -7 -109 -14z"/>
<path d="M20707 33196 c-131 -47 -218 -184 -204 -320 12 -114 81 -211 185
-259 36 -17 66 -22 127 -21 99 0 160 28 228 104 60 66 81 130 75 224 -8 118
-64 203 -170 256 -51 25 -73 30 -132 30 -39 -1 -88 -7 -109 -14z"/>
<path d="M26297 33196 c-131 -47 -218 -184 -204 -320 12 -114 81 -211 185
-259 36 -17 66 -22 127 -21 99 0 160 28 228 104 60 66 81 130 75 224 -8 118
-64 203 -170 256 -51 25 -73 30 -132 30 -39 -1 -88 -7 -109 -14z"/>
<path d="M31877 33196 c-131 -47 -218 -184 -204 -320 12 -114 81 -211 185
-259 36 -17 66 -22 127 -21 99 0 160 28 228 104 60 66 81 130 75 224 -8 118
-64 203 -170 256 -51 25 -73 30 -132 30 -39 -1 -88 -7 -109 -14z"/>
<path d="M37467 33196 c-131 -47 -218 -184 -204 -320 12 -114 81 -211 185
-259 36 -17 66 -22 127 -21 99 0 160 28 228 104 60 66 81 130 75 224 -8 118
-64 203 -170 256 -51 25 -73 30 -132 30 -39 -1 -88 -7 -109 -14z"/>
<path d="M43047 33196 c-131 -47 -218 -184 -204 -320 12 -114 81 -211 185
-259 36 -17 66 -22 127 -21 99 0 160 28 228 104 60 66 81 130 75 224 -8 118
-64 203 -170 256 -51 25 -73 30 -132 30 -39 -1 -88 -7 -109 -14z"/>
<path d="M48637 33196 c-131 -47 -218 -184 -204 -320 12 -114 81 -211 185
-259 36 -17 66 -22 127 -21 99 0 160 28 228 104 60 66 81 130 75 224 -8 118
-64 203 -170 256 -51 25 -73 30 -132 30 -39 -1 -88 -7 -109 -14z"/>
<path d="M1154 31720 c-166 -66 -245 -253 -172 -411 64 -140 216 -213 361
-174 280 74 320 440 62 573 -69 35 -179 41 -251 12z"/>
<path d="M6744 31720 c-166 -66 -245 -253 -172 -411 63 -138 208 -211 349
-175 282 73 323 440 64 573 -69 36 -170 41 -241 13z"/>
<path d="M12324 31720 c-166 -66 -245 -253 -172 -411 64 -140 216 -213 361
-174 280 74 320 440 62 573 -69 35 -179 41 -251 12z"/>
<path d="M17914 31720 c-166 -66 -245 -253 -172 -411 63 -138 208 -211 349
-175 282 73 323 440 64 573 -69 36 -170 41 -241 13z"/>
<path d="M23494 31720 c-166 -66 -245 -253 -172 -411 64 -140 216 -213 361
-174 280 74 320 440 62 573 -69 35 -179 41 -251 12z"/>
<path d="M29084 31720 c-166 -66 -245 -253 -172 -411 63 -138 208 -211 349
-175 282 73 323 440 64 573 -69 36 -170 41 -241 13z"/>
<path d="M34664 31720 c-166 -66 -245 -253 -172 -411 64 -140 216 -213 361
-174 280 74 320 440 62 573 -69 35 -179 41 -251 12z"/>
<path d="M40254 31720 c-166 -66 -245 -253 -172 -411 63 -138 208 -211 349
-175 282 73 323 440 64 573 -69 36 -170 41 -241 13z"/>
<path d="M45834 31720 c-166 -66 -245 -253 -172 -411 64 -140 216 -213 361
-174 280 74 320 440 62 573 -69 35 -179 41 -251 12z"/>
<path d="M3957 30256 c-131 -47 -218 -184 -204 -320 12 -114 81 -211 185 -259
36 -17 66 -22 127 -21 99 0 160 28 228 104 60 66 81 130 75 224 -8 118 -64
203 -170 256 -51 25 -73 30 -132 30 -39 -1 -88 -7 -109 -14z"/>
<path d="M9537 30256 c-131 -47 -218 -184 -204 -320 12 -114 81 -211 185 -259
36 -17 66 -22 127 -21 99 0 160 28 228 104 60 66 81 130 75 224 -8 118 -64
203 -170 256 -51 25 -73 30 -132 30 -39 -1 -88 -7 -109 -14z"/>
<path d="M15127 30256 c-131 -47 -218 -184 -204 -320 12 -114 81 -211 185
-259 36 -17 66 -22 127 -21 99 0 160 28 228 104 60 66 81 130 75 224 -8 118
-64 203 -170 256 -51 25 -73 30 -132 30 -39 -1 -88 -7 -109 -14z"/>
<path d="M20707 30256 c-131 -47 -218 -184 -204 -320 12 -114 81 -211 185
-259 36 -17 66 -22 127 -21 99 0 160 28 228 104 60 66 81 130 75 224 -8 118
-64 203 -170 256 -51 25 -73 30 -132 30 -39 -1 -88 -7 -109 -14z"/>
<path d="M26297 30256 c-131 -47 -218 -184 -204 -320 12 -114 81 -211 185
-259 36 -17 66 -22 127 -21 99 0 160 28 228 104 60 66 81 130 75 224 -8 118
-64 203 -170 256 -51 25 -73 30 -132 30 -39 -1 -88 -7 -109 -14z"/>
<path d="M31877 30256 c-131 -47 -218 -184 -204 -320 12 -114 81 -211 185
-259 36 -17 66 -22 127 -21 99 0 160 28 228 104 60 66 81 130 75 224 -8 118
-64 203 -170 256 -51 25 -73 30 -132 30 -39 -1 -88 -7 -109 -14z"/>
<path d="M37467 30256 c-131 -47 -218 -184 -204 -320 12 -114 81 -211 185
-259 36 -17 66 -22 127 -21 99 0 160 28 228 104 60 66 81 130 75 224 -8 118
-64 203 -170 256 -51 25 -73 30 -132 30 -39 -1 -88 -7 -109 -14z"/>
<path d="M43047 30256 c-131 -47 -218 -184 -204 -320 12 -114 81 -211 185
-259 36 -17 66 -22 127 -21 99 0 160 28 228 104 60 66 81 130 75 224 -8 118
-64 203 -170 256 -51 25 -73 30 -132 30 -39 -1 -88 -7 -109 -14z"/>
<path d="M48637 30256 c-131 -47 -218 -184 -204 -320 12 -114 81 -211 185
-259 36 -17 66 -22 127 -21 99 0 160 28 228 104 60 66 81 130 75 224 -8 118
-64 203 -170 256 -51 25 -73 30 -132 30 -39 -1 -88 -7 -109 -14z"/>
<path d="M1154 28780 c-71 -28 -137 -89 -171 -158 -56 -114 -29 -265 62 -357
166 -166 456 -92 521 134 43 145 -24 298 -161 369 -69 35 -179 41 -251 12z"/>
<path d="M6744 28780 c-71 -28 -137 -89 -171 -158 -71 -146 -7 -338 138 -412
172 -88 381 3 435 189 43 145 -24 298 -161 368 -69 36 -170 41 -241 13z"/>
<path d="M12324 28780 c-71 -28 -137 -89 -171 -158 -56 -114 -29 -265 62 -357
166 -166 456 -92 521 134 43 145 -24 298 -161 369 -69 35 -179 41 -251 12z"/>
<path d="M17914 28780 c-71 -28 -137 -89 -171 -158 -71 -146 -7 -338 138 -412
172 -88 381 3 435 189 43 145 -24 298 -161 368 -69 36 -170 41 -241 13z"/>
<path d="M23494 28780 c-71 -28 -137 -89 -171 -158 -56 -114 -29 -265 62 -357
166 -166 456 -92 521 134 43 145 -24 298 -161 369 -69 35 -179 41 -251 12z"/>
<path d="M29084 28780 c-71 -28 -137 -89 -171 -158 -71 -146 -7 -338 138 -412
172 -88 381 3 435 189 43 145 -24 298 -161 368 -69 36 -170 41 -241 13z"/>
<path d="M34664 28780 c-71 -28 -137 -89 -171 -158 -56 -114 -29 -265 62 -357
166 -166 456 -92 521 134 43 145 -24 298 -161 369 -69 35 -179 41 -251 12z"/>
<path d="M40254 28780 c-71 -28 -137 -89 -171 -158 -71 -146 -7 -338 138 -412
172 -88 381 3 435 189 43 145 -24 298 -161 368 -69 36 -170 41 -241 13z"/>
<path d="M45834 28780 c-71 -28 -137 -89 -171 -158 -56 -114 -29 -265 62 -357
166 -166 456 -92 521 134 43 145 -24 298 -161 369 -69 35 -179 41 -251 12z"/>
<path d="M3957 27306 c-131 -47 -218 -184 -204 -320 12 -114 81 -211 185 -259
36 -17 66 -22 127 -21 99 0 160 28 228 104 60 66 81 130 75 224 -8 118 -64
203 -170 256 -51 25 -73 30 -132 30 -39 -1 -88 -7 -109 -14z"/>
<path d="M9537 27306 c-131 -47 -218 -184 -204 -320 12 -114 81 -211 185 -259
36 -17 66 -22 127 -21 99 0 160 28 228 104 60 66 81 130 75 224 -8 118 -64
203 -170 256 -51 25 -73 30 -132 30 -39 -1 -88 -7 -109 -14z"/>
<path d="M15127 27306 c-131 -47 -218 -184 -204 -320 12 -114 81 -211 185
-259 36 -17 66 -22 127 -21 99 0 160 28 228 104 60 66 81 130 75 224 -8 118
-64 203 -170 256 -51 25 -73 30 -132 30 -39 -1 -88 -7 -109 -14z"/>
<path d="M20707 27306 c-131 -47 -218 -184 -204 -320 12 -114 81 -211 185
-259 36 -17 66 -22 127 -21 99 0 160 28 228 104 60 66 81 130 75 224 -8 118
-64 203 -170 256 -51 25 -73 30 -132 30 -39 -1 -88 -7 -109 -14z"/>
<path d="M26297 27306 c-131 -47 -218 -184 -204 -320 12 -114 81 -211 185
-259 36 -17 66 -22 127 -21 99 0 160 28 228 104 60 66 81 130 75 224 -8 118
-64 203 -170 256 -51 25 -73 30 -132 30 -39 -1 -88 -7 -109 -14z"/>
<path d="M31877 27306 c-131 -47 -218 -184 -204 -320 12 -114 81 -211 185
-259 36 -17 66 -22 127 -21 99 0 160 28 228 104 60 66 81 130 75 224 -8 118
-64 203 -170 256 -51 25 -73 30 -132 30 -39 -1 -88 -7 -109 -14z"/>
<path d="M37467 27306 c-131 -47 -218 -184 -204 -320 12 -114 81 -211 185
-259 36 -17 66 -22 127 -21 99 0 160 28 228 104 60 66 81 130 75 224 -8 118
-64 203 -170 256 -51 25 -73 30 -132 30 -39 -1 -88 -7 -109 -14z"/>
<path d="M43047 27306 c-131 -47 -218 -184 -204 -320 12 -114 81 -211 185
-259 36 -17 66 -22 127 -21 99 0 160 28 228 104 60 66 81 130 75 224 -8 118
-64 203 -170 256 -51 25 -73 30 -132 30 -39 -1 -88 -7 -109 -14z"/>
<path d="M48637 27306 c-131 -47 -218 -184 -204 -320 12 -114 81 -211 185
-259 36 -17 66 -22 127 -21 99 0 160 28 228 104 60 66 81 130 75 224 -8 118
-64 203 -170 256 -51 25 -73 30 -132 30 -39 -1 -88 -7 -109 -14z"/>
<path d="M1154 25830 c-71 -28 -137 -89 -171 -158 -56 -114 -29 -265 62 -357
166 -166 456 -92 521 134 43 145 -24 298 -161 369 -69 35 -179 41 -251 12z"/>
<path d="M6744 25830 c-71 -28 -137 -89 -171 -158 -71 -146 -7 -338 138 -412
172 -88 381 3 435 189 43 145 -24 298 -161 368 -69 36 -170 41 -241 13z"/>
<path d="M12324 25830 c-71 -28 -137 -89 -171 -158 -56 -114 -29 -265 62 -357
166 -166 456 -92 521 134 43 145 -24 298 -161 369 -69 35 -179 41 -251 12z"/>
<path d="M17914 25830 c-71 -28 -137 -89 -171 -158 -71 -146 -7 -338 138 -412
172 -88 381 3 435 189 43 145 -24 298 -161 368 -69 36 -170 41 -241 13z"/>
<path d="M23494 25830 c-71 -28 -137 -89 -171 -158 -56 -114 -29 -265 62 -357
166 -166 456 -92 521 134 43 145 -24 298 -161 369 -69 35 -179 41 -251 12z"/>
<path d="M29084 25830 c-71 -28 -137 -89 -171 -158 -71 -146 -7 -338 138 -412
172 -88 381 3 435 189 43 145 -24 298 -161 368 -69 36 -170 41 -241 13z"/>
<path d="M34664 25830 c-71 -28 -137 -89 -171 -158 -56 -114 -29 -265 62 -357
166 -166 456 -92 521 134 43 145 -24 298 -161 369 -69 35 -179 41 -251 12z"/>
<path d="M40254 25830 c-71 -28 -137 -89 -171 -158 -71 -146 -7 -338 138 -412
172 -88 381 3 435 189 43 145 -24 298 -161 368 -69 36 -170 41 -241 13z"/>
<path d="M45834 25830 c-71 -28 -137 -89 -171 -158 -56 -114 -29 -265 62 -357
166 -166 456 -92 521 134 43 145 -24 298 -161 369 -69 35 -179 41 -251 12z"/>
<path d="M3957 24356 c-131 -47 -218 -184 -204 -320 12 -114 81 -211 185 -259
36 -17 66 -22 127 -21 99 0 160 28 228 104 60 66 81 130 75 224 -8 118 -64
203 -170 256 -51 25 -73 30 -132 30 -39 -1 -88 -7 -109 -14z"/>
<path d="M9537 24356 c-131 -47 -218 -184 -204 -320 12 -114 81 -211 185 -259
36 -17 66 -22 127 -21 99 0 160 28 228 104 60 66 81 130 75 224 -8 118 -64
203 -170 256 -51 25 -73 30 -132 30 -39 -1 -88 -7 -109 -14z"/>
<path d="M15127 24356 c-131 -47 -218 -184 -204 -320 12 -114 81 -211 185
-259 36 -17 66 -22 127 -21 99 0 160 28 228 104 60 66 81 130 75 224 -8 118
-64 203 -170 256 -51 25 -73 30 -132 30 -39 -1 -88 -7 -109 -14z"/>
<path d="M20707 24356 c-131 -47 -218 -184 -204 -320 12 -114 81 -211 185
-259 36 -17 66 -22 127 -21 99 0 160 28 228 104 60 66 81 130 75 224 -8 118
-64 203 -170 256 -51 25 -73 30 -132 30 -39 -1 -88 -7 -109 -14z"/>
<path d="M26297 24356 c-131 -47 -218 -184 -204 -320 12 -114 81 -211 185
-259 36 -17 66 -22 127 -21 99 0 160 28 228 104 60 66 81 130 75 224 -8 118
-64 203 -170 256 -51 25 -73 30 -132 30 -39 -1 -88 -7 -109 -14z"/>
<path d="M31877 24356 c-131 -47 -218 -184 -204 -320 12 -114 81 -211 185
-259 36 -17 66 -22 127 -21 99 0 160 28 228 104 60 66 81 130 75 224 -8 118
-64 203 -170 256 -51 25 -73 30 -132 30 -39 -1 -88 -7 -109 -14z"/>
<path d="M37467 24356 c-131 -47 -218 -184 -204 -320 12 -114 81 -211 185
-259 36 -17 66 -22 127 -21 99 0 160 28 228 104 60 66 81 130 75 224 -8 118
-64 203 -170 256 -51 25 -73 30 -132 30 -39 -1 -88 -7 -109 -14z"/>
<path d="M43047 24356 c-131 -47 -218 -184 -204 -320 12 -114 81 -211 185
-259 36 -17 66 -22 127 -21 99 0 160 28 228 104 60 66 81 130 75 224 -8 118
-64 203 -170 256 -51 25 -73 30 -132 30 -39 -1 -88 -7 -109 -14z"/>
<path d="M48637 24356 c-131 -47 -218 -184 -204 -320 12 -114 81 -211 185
-259 36 -17 66 -22 127 -21 99 0 160 28 228 104 60 66 81 130 75 224 -8 118
-64 203 -170 256 -51 25 -73 30 -132 30 -39 -1 -88 -7 -109 -14z"/>
<path d="M1154 22880 c-166 -66 -245 -253 -172 -411 64 -140 216 -213 361
-174 280 74 320 440 62 573 -69 35 -179 41 -251 12z"/>
<path d="M6744 22880 c-166 -66 -245 -253 -172 -411 63 -138 208 -211 349
-175 282 73 323 440 64 573 -69 36 -170 41 -241 13z"/>
<path d="M12324 22880 c-166 -66 -245 -253 -172 -411 64 -140 216 -213 361
-174 280 74 320 440 62 573 -69 35 -179 41 -251 12z"/>
<path d="M17914 22880 c-166 -66 -245 -253 -172 -411 63 -138 208 -211 349
-175 282 73 323 440 64 573 -69 36 -170 41 -241 13z"/>
<path d="M23494 22880 c-166 -66 -245 -253 -172 -411 64 -140 216 -213 361
-174 280 74 320 440 62 573 -69 35 -179 41 -251 12z"/>
<path d="M29084 22880 c-166 -66 -245 -253 -172 -411 63 -138 208 -211 349
-175 282 73 323 440 64 573 -69 36 -170 41 -241 13z"/>
<path d="M34664 22880 c-166 -66 -245 -253 -172 -411 64 -140 216 -213 361
-174 280 74 320 440 62 573 -69 35 -179 41 -251 12z"/>
<path d="M40254 22880 c-166 -66 -245 -253 -172 -411 63 -138 208 -211 349
-175 282 73 323 440 64 573 -69 36 -170 41 -241 13z"/>
<path d="M45834 22880 c-166 -66 -245 -253 -172 -411 64 -140 216 -213 361
-174 280 74 320 440 62 573 -69 35 -179 41 -251 12z"/>
<path d="M3957 21416 c-131 -47 -218 -184 -204 -320 12 -114 81 -211 185 -259
36 -17 66 -22 127 -21 99 0 160 28 228 104 60 66 81 130 75 224 -8 118 -64
203 -170 256 -51 25 -73 30 -132 30 -39 -1 -88 -7 -109 -14z"/>
<path d="M9537 21416 c-131 -47 -218 -184 -204 -320 12 -114 81 -211 185 -259
36 -17 66 -22 127 -21 99 0 160 28 228 104 60 66 81 130 75 224 -8 118 -64
203 -170 256 -51 25 -73 30 -132 30 -39 -1 -88 -7 -109 -14z"/>
<path d="M15127 21416 c-131 -47 -218 -184 -204 -320 12 -114 81 -211 185
-259 36 -17 66 -22 127 -21 99 0 160 28 228 104 60 66 81 130 75 224 -8 118
-64 203 -170 256 -51 25 -73 30 -132 30 -39 -1 -88 -7 -109 -14z"/>
<path d="M20707 21416 c-131 -47 -218 -184 -204 -320 12 -114 81 -211 185
-259 36 -17 66 -22 127 -21 99 0 160 28 228 104 60 66 81 130 75 224 -8 118
-64 203 -170 256 -51 25 -73 30 -132 30 -39 -1 -88 -7 -109 -14z"/>
<path d="M26297 21416 c-131 -47 -218 -184 -204 -320 12 -114 81 -211 185
-259 36 -17 66 -22 127 -21 99 0 160 28 228 104 60 66 81 130 75 224 -8 118
-64 203 -170 256 -51 25 -73 30 -132 30 -39 -1 -88 -7 -109 -14z"/>
<path d="M31877 21416 c-131 -47 -218 -184 -204 -320 12 -114 81 -211 185
-259 36 -17 66 -22 127 -21 99 0 160 28 228 104 60 66 81 130 75 224 -8 118
-64 203 -170 256 -51 25 -73 30 -132 30 -39 -1 -88 -7 -109 -14z"/>
<path d="M37467 21416 c-131 -47 -218 -184 -204 -320 12 -114 81 -211 185
-259 36 -17 66 -22 127 -21 99 0 160 28 228 104 60 66 81 130 75 224 -8 118
-64 203 -170 256 -51 25 -73 30 -132 30 -39 -1 -88 -7 -109 -14z"/>
<path d="M43047 21416 c-131 -47 -218 -184 -204 -320 12 -114 81 -211 185
-259 36 -17 66 -22 127 -21 99 0 160 28 228 104 60 66 81 130 75 224 -8 118
-64 203 -170 256 -51 25 -73 30 -132 30 -39 -1 -88 -7 -109 -14z"/>
<path d="M48637 21416 c-131 -47 -218 -184 -204 -320 12 -114 81 -211 185
-259 36 -17 66 -22 127 -21 99 0 160 28 228 104 60 66 81 130 75 224 -8 118
-64 203 -170 256 -51 25 -73 30 -132 30 -39 -1 -88 -7 -109 -14z"/>
<path d="M1154 19940 c-71 -28 -137 -89 -171 -158 -56 -114 -29 -265 62 -357
166 -166 456 -92 521 134 43 145 -24 298 -161 369 -69 35 -179 41 -251 12z"/>
<path d="M6744 19940 c-71 -28 -137 -89 -171 -158 -71 -146 -7 -338 138 -412
172 -88 381 3 435 189 43 145 -24 298 -161 368 -69 36 -170 41 -241 13z"/>
<path d="M12324 19940 c-71 -28 -137 -89 -171 -158 -56 -114 -29 -265 62 -357
166 -166 456 -92 521 134 43 145 -24 298 -161 369 -69 35 -179 41 -251 12z"/>
<path d="M17914 19940 c-71 -28 -137 -89 -171 -158 -71 -146 -7 -338 138 -412
172 -88 381 3 435 189 43 145 -24 298 -161 368 -69 36 -170 41 -241 13z"/>
<path d="M23494 19940 c-71 -28 -137 -89 -171 -158 -56 -114 -29 -265 62 -357
166 -166 456 -92 521 134 43 145 -24 298 -161 369 -69 35 -179 41 -251 12z"/>
<path d="M29084 19940 c-71 -28 -137 -89 -171 -158 -71 -146 -7 -338 138 -412
172 -88 381 3 435 189 43 145 -24 298 -161 368 -69 36 -170 41 -241 13z"/>
<path d="M34664 19940 c-71 -28 -137 -89 -171 -158 -56 -114 -29 -265 62 -357
166 -166 456 -92 521 134 43 145 -24 298 -161 369 -69 35 -179 41 -251 12z"/>
<path d="M40254 19940 c-71 -28 -137 -89 -171 -158 -71 -146 -7 -338 138 -412
172 -88 381 3 435 189 43 145 -24 298 -161 368 -69 36 -170 41 -241 13z"/>
<path d="M45834 19940 c-71 -28 -137 -89 -171 -158 -56 -114 -29 -265 62 -357
166 -166 456 -92 521 134 43 145 -24 298 -161 369 -69 35 -179 41 -251 12z"/>
<path d="M3957 18466 c-131 -47 -218 -184 -204 -320 12 -114 81 -211 185 -259
36 -17 66 -22 127 -21 99 0 160 28 228 104 60 66 81 130 75 224 -8 118 -64
203 -170 256 -51 25 -73 30 -132 30 -39 -1 -88 -7 -109 -14z"/>
<path d="M9537 18466 c-131 -47 -218 -184 -204 -320 12 -114 81 -211 185 -259
36 -17 66 -22 127 -21 99 0 160 28 228 104 60 66 81 130 75 224 -8 118 -64
203 -170 256 -51 25 -73 30 -132 30 -39 -1 -88 -7 -109 -14z"/>
<path d="M15127 18466 c-131 -47 -218 -184 -204 -320 12 -114 81 -211 185
-259 36 -17 66 -22 127 -21 99 0 160 28 228 104 60 66 81 130 75 224 -8 118
-64 203 -170 256 -51 25 -73 30 -132 30 -39 -1 -88 -7 -109 -14z"/>
<path d="M20707 18466 c-131 -47 -218 -184 -204 -320 12 -114 81 -211 185
-259 36 -17 66 -22 127 -21 99 0 160 28 228 104 60 66 81 130 75 224 -8 118
-64 203 -170 256 -51 25 -73 30 -132 30 -39 -1 -88 -7 -109 -14z"/>
<path d="M26297 18466 c-131 -47 -218 -184 -204 -320 12 -114 81 -211 185
-259 36 -17 66 -22 127 -21 99 0 160 28 228 104 60 66 81 130 75 224 -8 118
-64 203 -170 256 -51 25 -73 30 -132 30 -39 -1 -88 -7 -109 -14z"/>
<path d="M31877 18466 c-131 -47 -218 -184 -204 -320 12 -114 81 -211 185
-259 36 -17 66 -22 127 -21 99 0 160 28 228 104 60 66 81 130 75 224 -8 118
-64 203 -170 256 -51 25 -73 30 -132 30 -39 -1 -88 -7 -109 -14z"/>
<path d="M37467 18466 c-131 -47 -218 -184 -204 -320 12 -114 81 -211 185
-259 36 -17 66 -22 127 -21 99 0 160 28 228 104 60 66 81 130 75 224 -8 118
-64 203 -170 256 -51 25 -73 30 -132 30 -39 -1 -88 -7 -109 -14z"/>
<path d="M43047 18466 c-131 -47 -218 -184 -204 -320 12 -114 81 -211 185
-259 36 -17 66 -22 127 -21 99 0 160 28 228 104 60 66 81 130 75 224 -8 118
-64 203 -170 256 -51 25 -73 30 -132 30 -39 -1 -88 -7 -109 -14z"/>
<path d="M48637 18466 c-131 -47 -218 -184 -204 -320 12 -114 81 -211 185
-259 36 -17 66 -22 127 -21 99 0 160 28 228 104 60 66 81 130 75 224 -8 118
-64 203 -170 256 -51 25 -73 30 -132 30 -39 -1 -88 -7 -109 -14z"/>
<path d="M1154 16990 c-166 -66 -245 -253 -172 -411 64 -140 216 -213 361
-174 280 74 320 440 62 573 -69 35 -179 41 -251 12z"/>
<path d="M6744 16990 c-166 -66 -245 -253 -172 -411 63 -138 208 -211 349
-175 282 73 323 440 64 573 -69 36 -170 41 -241 13z"/>
<path d="M12324 16990 c-166 -66 -245 -253 -172 -411 64 -140 216 -213 361
-174 280 74 320 440 62 573 -69 35 -179 41 -251 12z"/>
<path d="M17914 16990 c-166 -66 -245 -253 -172 -411 63 -138 208 -211 349
-175 282 73 323 440 64 573 -69 36 -170 41 -241 13z"/>
<path d="M23494 16990 c-166 -66 -245 -253 -172 -411 64 -140 216 -213 361
-174 280 74 320 440 62 573 -69 35 -179 41 -251 12z"/>
<path d="M29084 16990 c-166 -66 -245 -253 -172 -411 63 -138 208 -211 349
-175 282 73 323 440 64 573 -69 36 -170 41 -241 13z"/>
<path d="M34664 16990 c-166 -66 -245 -253 -172 -411 64 -140 216 -213 361
-174 280 74 320 440 62 573 -69 35 -179 41 -251 12z"/>
<path d="M40254 16990 c-166 -66 -245 -253 -172 -411 63 -138 208 -211 349
-175 282 73 323 440 64 573 -69 36 -170 41 -241 13z"/>
<path d="M45834 16990 c-166 -66 -245 -253 -172 -411 64 -140 216 -213 361
-174 280 74 320 440 62 573 -69 35 -179 41 -251 12z"/>
<path d="M3957 15526 c-131 -47 -218 -184 -204 -320 12 -114 81 -211 185 -259
36 -17 66 -22 127 -21 99 0 160 28 228 104 60 66 81 130 75 224 -8 118 -64
203 -170 256 -51 25 -73 30 -132 30 -39 -1 -88 -7 -109 -14z"/>
<path d="M9537 15526 c-131 -47 -218 -184 -204 -320 12 -114 81 -211 185 -259
36 -17 66 -22 127 -21 99 0 160 28 228 104 60 66 81 130 75 224 -8 118 -64
203 -170 256 -51 25 -73 30 -132 30 -39 -1 -88 -7 -109 -14z"/>
<path d="M15127 15526 c-131 -47 -218 -184 -204 -320 12 -114 81 -211 185
-259 36 -17 66 -22 127 -21 99 0 160 28 228 104 60 66 81 130 75 224 -8 118
-64 203 -170 256 -51 25 -73 30 -132 30 -39 -1 -88 -7 -109 -14z"/>
<path d="M20707 15526 c-131 -47 -218 -184 -204 -320 12 -114 81 -211 185
-259 36 -17 66 -22 127 -21 99 0 160 28 228 104 60 66 81 130 75 224 -8 118
-64 203 -170 256 -51 25 -73 30 -132 30 -39 -1 -88 -7 -109 -14z"/>
<path d="M26297 15526 c-131 -47 -218 -184 -204 -320 12 -114 81 -211 185
-259 36 -17 66 -22 127 -21 99 0 160 28 228 104 60 66 81 130 75 224 -8 118
-64 203 -170 256 -51 25 -73 30 -132 30 -39 -1 -88 -7 -109 -14z"/>
<path d="M31877 15526 c-131 -47 -218 -184 -204 -320 12 -114 81 -211 185
-259 36 -17 66 -22 127 -21 99 0 160 28 228 104 60 66 81 130 75 224 -8 118
-64 203 -170 256 -51 25 -73 30 -132 30 -39 -1 -88 -7 -109 -14z"/>
<path d="M37467 15526 c-131 -47 -218 -184 -204 -320 12 -114 81 -211 185
-259 36 -17 66 -22 127 -21 99 0 160 28 228 104 60 66 81 130 75 224 -8 118
-64 203 -170 256 -51 25 -73 30 -132 30 -39 -1 -88 -7 -109 -14z"/>
<path d="M43047 15526 c-131 -47 -218 -184 -204 -320 12 -114 81 -211 185
-259 36 -17 66 -22 127 -21 99 0 160 28 228 104 60 66 81 130 75 224 -8 118
-64 203 -170 256 -51 25 -73 30 -132 30 -39 -1 -88 -7 -109 -14z"/>
<path d="M48637 15526 c-131 -47 -218 -184 -204 -320 12 -114 81 -211 185
-259 36 -17 66 -22 127 -21 99 0 160 28 228 104 60 66 81 130 75 224 -8 118
-64 203 -170 256 -51 25 -73 30 -132 30 -39 -1 -88 -7 -109 -14z"/>
<path d="M1154 14050 c-71 -28 -137 -89 -171 -158 -56 -114 -29 -265 62 -357
166 -166 456 -92 521 134 43 145 -24 298 -161 369 -69 35 -179 41 -251 12z"/>
<path d="M6744 14050 c-71 -28 -137 -89 -171 -158 -71 -146 -7 -338 138 -412
172 -88 381 3 435 189 43 145 -24 298 -161 368 -69 36 -170 41 -241 13z"/>
<path d="M12324 14050 c-71 -28 -137 -89 -171 -158 -56 -114 -29 -265 62 -357
166 -166 456 -92 521 134 43 145 -24 298 -161 369 -69 35 -179 41 -251 12z"/>
<path d="M17914 14050 c-71 -28 -137 -89 -171 -158 -71 -146 -7 -338 138 -412
172 -88 381 3 435 189 43 145 -24 298 -161 368 -69 36 -170 41 -241 13z"/>
<path d="M23494 14050 c-71 -28 -137 -89 -171 -158 -56 -114 -29 -265 62 -357
166 -166 456 -92 521 134 43 145 -24 298 -161 369 -69 35 -179 41 -251 12z"/>
<path d="M29084 14050 c-71 -28 -137 -89 -171 -158 -71 -146 -7 -338 138 -412
172 -88 381 3 435 189 43 145 -24 298 -161 368 -69 36 -170 41 -241 13z"/>
<path d="M34664 14050 c-71 -28 -137 -89 -171 -158 -56 -114 -29 -265 62 -357
166 -166 456 -92 521 134 43 145 -24 298 -161 369 -69 35 -179 41 -251 12z"/>
<path d="M40254 14050 c-71 -28 -137 -89 -171 -158 -71 -146 -7 -338 138 -412
172 -88 381 3 435 189 43 145 -24 298 -161 368 -69 36 -170 41 -241 13z"/>
<path d="M45834 14050 c-71 -28 -137 -89 -171 -158 -56 -114 -29 -265 62 -357
166 -166 456 -92 521 134 43 145 -24 298 -161 369 -69 35 -179 41 -251 12z"/>
<path d="M3957 12576 c-131 -47 -218 -184 -204 -320 12 -114 81 -211 185 -259
36 -17 66 -22 127 -21 99 0 160 28 228 104 60 66 81 130 75 224 -8 118 -64
203 -170 256 -51 25 -73 30 -132 30 -39 -1 -88 -7 -109 -14z"/>
<path d="M9537 12576 c-131 -47 -218 -184 -204 -320 12 -114 81 -211 185 -259
36 -17 66 -22 127 -21 99 0 160 28 228 104 60 66 81 130 75 224 -8 118 -64
203 -170 256 -51 25 -73 30 -132 30 -39 -1 -88 -7 -109 -14z"/>
<path d="M15127 12576 c-131 -47 -218 -184 -204 -320 12 -114 81 -211 185
-259 36 -17 66 -22 127 -21 99 0 160 28 228 104 60 66 81 130 75 224 -8 118
-64 203 -170 256 -51 25 -73 30 -132 30 -39 -1 -88 -7 -109 -14z"/>
<path d="M20707 12576 c-131 -47 -218 -184 -204 -320 12 -114 81 -211 185
-259 36 -17 66 -22 127 -21 99 0 160 28 228 104 60 66 81 130 75 224 -8 118
-64 203 -170 256 -51 25 -73 30 -132 30 -39 -1 -88 -7 -109 -14z"/>
<path d="M26297 12576 c-131 -47 -218 -184 -204 -320 12 -114 81 -211 185
-259 36 -17 66 -22 127 -21 99 0 160 28 228 104 60 66 81 130 75 224 -8 118
-64 203 -170 256 -51 25 -73 30 -132 30 -39 -1 -88 -7 -109 -14z"/>
<path d="M31877 12576 c-131 -47 -218 -184 -204 -320 12 -114 81 -211 185
-259 36 -17 66 -22 127 -21 99 0 160 28 228 104 60 66 81 130 75 224 -8 118
-64 203 -170 256 -51 25 -73 30 -132 30 -39 -1 -88 -7 -109 -14z"/>
<path d="M37467 12576 c-131 -47 -218 -184 -204 -320 12 -114 81 -211 185
-259 36 -17 66 -22 127 -21 99 0 160 28 228 104 60 66 81 130 75 224 -8 118
-64 203 -170 256 -51 25 -73 30 -132 30 -39 -1 -88 -7 -109 -14z"/>
<path d="M43047 12576 c-131 -47 -218 -184 -204 -320 12 -114 81 -211 185
-259 36 -17 66 -22 127 -21 99 0 160 28 228 104 60 66 81 130 75 224 -8 118
-64 203 -170 256 -51 25 -73 30 -132 30 -39 -1 -88 -7 -109 -14z"/>
<path d="M48637 12576 c-131 -47 -218 -184 -204 -320 12 -114 81 -211 185
-259 36 -17 66 -22 127 -21 99 0 160 28 228 104 60 66 81 130 75 224 -8 118
-64 203 -170 256 -51 25 -73 30 -132 30 -39 -1 -88 -7 -109 -14z"/>
<path d="M1154 11100 c-166 -66 -245 -253 -172 -411 64 -140 216 -213 361
-174 280 74 320 440 62 573 -69 35 -179 41 -251 12z"/>
<path d="M6744 11100 c-166 -66 -245 -253 -172 -411 63 -138 208 -211 349
-175 282 73 323 440 64 573 -69 36 -170 41 -241 13z"/>
<path d="M12324 11100 c-166 -66 -245 -253 -172 -411 64 -140 216 -213 361
-174 280 74 320 440 62 573 -69 35 -179 41 -251 12z"/>
<path d="M17914 11100 c-166 -66 -245 -253 -172 -411 63 -138 208 -211 349
-175 282 73 323 440 64 573 -69 36 -170 41 -241 13z"/>
<path d="M23494 11100 c-166 -66 -245 -253 -172 -411 64 -140 216 -213 361
-174 280 74 320 440 62 573 -69 35 -179 41 -251 12z"/>
<path d="M29084 11100 c-166 -66 -245 -253 -172 -411 63 -138 208 -211 349
-175 282 73 323 440 64 573 -69 36 -170 41 -241 13z"/>
<path d="M34664 11100 c-166 -66 -245 -253 -172 -411 64 -140 216 -213 361
-174 280 74 320 440 62 573 -69 35 -179 41 -251 12z"/>
<path d="M40254 11100 c-166 -66 -245 -253 -172 -411 63 -138 208 -211 349
-175 282 73 323 440 64 573 -69 36 -170 41 -241 13z"/>
<path d="M45834 11100 c-166 -66 -245 -253 -172 -411 64 -140 216 -213 361
-174 280 74 320 440 62 573 -69 35 -179 41 -251 12z"/>
<path d="M3957 9636 c-131 -47 -218 -184 -204 -320 12 -114 81 -211 185 -259
36 -17 66 -22 127 -21 99 0 160 28 228 104 60 66 81 130 75 224 -8 118 -64
203 -170 256 -51 25 -73 30 -132 30 -39 -1 -88 -7 -109 -14z"/>
<path d="M9537 9636 c-131 -47 -218 -184 -204 -320 12 -114 81 -211 185 -259
36 -17 66 -22 127 -21 99 0 160 28 228 104 60 66 81 130 75 224 -8 118 -64
203 -170 256 -51 25 -73 30 -132 30 -39 -1 -88 -7 -109 -14z"/>
<path d="M15127 9636 c-131 -47 -218 -184 -204 -320 12 -114 81 -211 185 -259
36 -17 66 -22 127 -21 99 0 160 28 228 104 60 66 81 130 75 224 -8 118 -64
203 -170 256 -51 25 -73 30 -132 30 -39 -1 -88 -7 -109 -14z"/>
<path d="M20707 9636 c-131 -47 -218 -184 -204 -320 12 -114 81 -211 185 -259
36 -17 66 -22 127 -21 99 0 160 28 228 104 60 66 81 130 75 224 -8 118 -64
203 -170 256 -51 25 -73 30 -132 30 -39 -1 -88 -7 -109 -14z"/>
<path d="M26297 9636 c-131 -47 -218 -184 -204 -320 12 -114 81 -211 185 -259
36 -17 66 -22 127 -21 99 0 160 28 228 104 60 66 81 130 75 224 -8 118 -64
203 -170 256 -51 25 -73 30 -132 30 -39 -1 -88 -7 -109 -14z"/>
<path d="M31877 9636 c-131 -47 -218 -184 -204 -320 12 -114 81 -211 185 -259
36 -17 66 -22 127 -21 99 0 160 28 228 104 60 66 81 130 75 224 -8 118 -64
203 -170 256 -51 25 -73 30 -132 30 -39 -1 -88 -7 -109 -14z"/>
<path d="M37467 9636 c-131 -47 -218 -184 -204 -320 12 -114 81 -211 185 -259
36 -17 66 -22 127 -21 99 0 160 28 228 104 60 66 81 130 75 224 -8 118 -64
203 -170 256 -51 25 -73 30 -132 30 -39 -1 -88 -7 -109 -14z"/>
<path d="M43047 9636 c-131 -47 -218 -184 -204 -320 12 -114 81 -211 185 -259
36 -17 66 -22 127 -21 99 0 160 28 228 104 60 66 81 130 75 224 -8 118 -64
203 -170 256 -51 25 -73 30 -132 30 -39 -1 -88 -7 -109 -14z"/>
<path d="M48637 9636 c-131 -47 -218 -184 -204 -320 12 -114 81 -211 185 -259
36 -17 66 -22 127 -21 99 0 160 28 228 104 60 66 81 130 75 224 -8 118 -64
203 -170 256 -51 25 -73 30 -132 30 -39 -1 -88 -7 -109 -14z"/>
<path d="M1154 8160 c-71 -28 -137 -89 -171 -158 -56 -114 -29 -265 62 -357
166 -166 456 -92 521 134 43 145 -24 298 -161 369 -69 35 -179 41 -251 12z"/>
<path d="M6744 8160 c-71 -28 -137 -89 -171 -158 -71 -146 -7 -338 138 -412
172 -88 381 3 435 189 43 145 -24 298 -161 368 -69 36 -170 41 -241 13z"/>
<path d="M12324 8160 c-71 -28 -137 -89 -171 -158 -56 -114 -29 -265 62 -357
166 -166 456 -92 521 134 43 145 -24 298 -161 369 -69 35 -179 41 -251 12z"/>
<path d="M17914 8160 c-71 -28 -137 -89 -171 -158 -71 -146 -7 -338 138 -412
172 -88 381 3 435 189 43 145 -24 298 -161 368 -69 36 -170 41 -241 13z"/>
<path d="M23494 8160 c-71 -28 -137 -89 -171 -158 -56 -114 -29 -265 62 -357
166 -166 456 -92 521 134 43 145 -24 298 -161 369 -69 35 -179 41 -251 12z"/>
<path d="M29084 8160 c-71 -28 -137 -89 -171 -158 -71 -146 -7 -338 138 -412
172 -88 381 3 435 189 43 145 -24 298 -161 368 -69 36 -170 41 -241 13z"/>
<path d="M34664 8160 c-71 -28 -137 -89 -171 -158 -56 -114 -29 -265 62 -357
166 -166 456 -92 521 134 43 145 -24 298 -161 369 -69 35 -179 41 -251 12z"/>
<path d="M40254 8160 c-71 -28 -137 -89 -171 -158 -71 -146 -7 -338 138 -412
172 -88 381 3 435 189 43 145 -24 298 -161 368 -69 36 -170 41 -241 13z"/>
<path d="M45834 8160 c-71 -28 -137 -89 -171 -158 -56 -114 -29 -265 62 -357
166 -166 456 -92 521 134 43 145 -24 298 -161 369 -69 35 -179 41 -251 12z"/>
<path d="M3957 6686 c-131 -47 -218 -184 -204 -320 12 -114 81 -211 185 -259
36 -17 66 -22 127 -21 99 0 160 28 228 104 60 66 81 130 75 224 -8 118 -64
203 -170 256 -51 25 -73 30 -132 30 -39 -1 -88 -7 -109 -14z"/>
<path d="M9537 6686 c-131 -47 -218 -184 -204 -320 12 -114 81 -211 185 -259
36 -17 66 -22 127 -21 99 0 160 28 228 104 60 66 81 130 75 224 -8 118 -64
203 -170 256 -51 25 -73 30 -132 30 -39 -1 -88 -7 -109 -14z"/>
<path d="M15127 6686 c-131 -47 -218 -184 -204 -320 12 -114 81 -211 185 -259
36 -17 66 -22 127 -21 99 0 160 28 228 104 60 66 81 130 75 224 -8 118 -64
203 -170 256 -51 25 -73 30 -132 30 -39 -1 -88 -7 -109 -14z"/>
<path d="M20707 6686 c-131 -47 -218 -184 -204 -320 12 -114 81 -211 185 -259
36 -17 66 -22 127 -21 99 0 160 28 228 104 60 66 81 130 75 224 -8 118 -64
203 -170 256 -51 25 -73 30 -132 30 -39 -1 -88 -7 -109 -14z"/>
<path d="M26297 6686 c-131 -47 -218 -184 -204 -320 12 -114 81 -211 185 -259
36 -17 66 -22 127 -21 99 0 160 28 228 104 60 66 81 130 75 224 -8 118 -64
203 -170 256 -51 25 -73 30 -132 30 -39 -1 -88 -7 -109 -14z"/>
<path d="M31877 6686 c-131 -47 -218 -184 -204 -320 12 -114 81 -211 185 -259
36 -17 66 -22 127 -21 99 0 160 28 228 104 60 66 81 130 75 224 -8 118 -64
203 -170 256 -51 25 -73 30 -132 30 -39 -1 -88 -7 -109 -14z"/>
<path d="M37467 6686 c-131 -47 -218 -184 -204 -320 12 -114 81 -211 185 -259
36 -17 66 -22 127 -21 99 0 160 28 228 104 60 66 81 130 75 224 -8 118 -64
203 -170 256 -51 25 -73 30 -132 30 -39 -1 -88 -7 -109 -14z"/>
<path d="M43047 6686 c-131 -47 -218 -184 -204 -320 12 -114 81 -211 185 -259
36 -17 66 -22 127 -21 99 0 160 28 228 104 60 66 81 130 75 224 -8 118 -64
203 -170 256 -51 25 -73 30 -132 30 -39 -1 -88 -7 -109 -14z"/>
<path d="M48637 6686 c-131 -47 -218 -184 -204 -320 12 -114 81 -211 185 -259
36 -17 66 -22 127 -21 99 0 160 28 228 104 60 66 81 130 75 224 -8 118 -64
203 -170 256 -51 25 -73 30 -132 30 -39 -1 -88 -7 -109 -14z"/>
<path d="M1154 5210 c-71 -28 -137 -89 -171 -158 -56 -114 -29 -265 62 -357
166 -166 456 -92 521 134 43 145 -24 298 -161 369 -69 35 -179 41 -251 12z"/>
<path d="M6744 5210 c-71 -28 -137 -89 -171 -158 -71 -146 -7 -338 138 -412
172 -88 381 3 435 189 43 145 -24 298 -161 368 -69 36 -170 41 -241 13z"/>
<path d="M12324 5210 c-71 -28 -137 -89 -171 -158 -56 -114 -29 -265 62 -357
166 -166 456 -92 521 134 43 145 -24 298 -161 369 -69 35 -179 41 -251 12z"/>
<path d="M17914 5210 c-71 -28 -137 -89 -171 -158 -71 -146 -7 -338 138 -412
172 -88 381 3 435 189 43 145 -24 298 -161 368 -69 36 -170 41 -241 13z"/>
<path d="M23494 5210 c-71 -28 -137 -89 -171 -158 -56 -114 -29 -265 62 -357
166 -166 456 -92 521 134 43 145 -24 298 -161 369 -69 35 -179 41 -251 12z"/>
<path d="M29084 5210 c-71 -28 -137 -89 -171 -158 -71 -146 -7 -338 138 -412
172 -88 381 3 435 189 43 145 -24 298 -161 368 -69 36 -170 41 -241 13z"/>
<path d="M34664 5210 c-71 -28 -137 -89 -171 -158 -56 -114 -29 -265 62 -357
166 -166 456 -92 521 134 43 145 -24 298 -161 369 -69 35 -179 41 -251 12z"/>
<path d="M40254 5210 c-71 -28 -137 -89 -171 -158 -71 -146 -7 -338 138 -412
172 -88 381 3 435 189 43 145 -24 298 -161 368 -69 36 -170 41 -241 13z"/>
<path d="M45834 5210 c-71 -28 -137 -89 -171 -158 -56 -114 -29 -265 62 -357
166 -166 456 -92 521 134 43 145 -24 298 -161 369 -69 35 -179 41 -251 12z"/>
<path d="M3957 3736 c-131 -47 -218 -184 -204 -320 12 -114 81 -211 185 -259
36 -17 66 -22 127 -21 99 0 160 28 228 104 60 66 81 130 75 224 -8 118 -64
203 -170 256 -51 25 -73 30 -132 30 -39 -1 -88 -7 -109 -14z"/>
<path d="M9537 3736 c-131 -47 -218 -184 -204 -320 12 -114 81 -211 185 -259
36 -17 66 -22 127 -21 99 0 160 28 228 104 60 66 81 130 75 224 -8 118 -64
203 -170 256 -51 25 -73 30 -132 30 -39 -1 -88 -7 -109 -14z"/>
<path d="M15127 3736 c-131 -47 -218 -184 -204 -320 12 -114 81 -211 185 -259
36 -17 66 -22 127 -21 99 0 160 28 228 104 60 66 81 130 75 224 -8 118 -64
203 -170 256 -51 25 -73 30 -132 30 -39 -1 -88 -7 -109 -14z"/>
<path d="M20707 3736 c-131 -47 -218 -184 -204 -320 12 -114 81 -211 185 -259
36 -17 66 -22 127 -21 99 0 160 28 228 104 60 66 81 130 75 224 -8 118 -64
203 -170 256 -51 25 -73 30 -132 30 -39 -1 -88 -7 -109 -14z"/>
<path d="M26297 3736 c-131 -47 -218 -184 -204 -320 12 -114 81 -211 185 -259
36 -17 66 -22 127 -21 99 0 160 28 228 104 60 66 81 130 75 224 -8 118 -64
203 -170 256 -51 25 -73 30 -132 30 -39 -1 -88 -7 -109 -14z"/>
<path d="M31877 3736 c-131 -47 -218 -184 -204 -320 12 -114 81 -211 185 -259
36 -17 66 -22 127 -21 99 0 160 28 228 104 60 66 81 130 75 224 -8 118 -64
203 -170 256 -51 25 -73 30 -132 30 -39 -1 -88 -7 -109 -14z"/>
<path d="M37467 3736 c-131 -47 -218 -184 -204 -320 12 -114 81 -211 185 -259
36 -17 66 -22 127 -21 99 0 160 28 228 104 60 66 81 130 75 224 -8 118 -64
203 -170 256 -51 25 -73 30 -132 30 -39 -1 -88 -7 -109 -14z"/>
<path d="M43047 3736 c-131 -47 -218 -184 -204 -320 12 -114 81 -211 185 -259
36 -17 66 -22 127 -21 99 0 160 28 228 104 60 66 81 130 75 224 -8 118 -64
203 -170 256 -51 25 -73 30 -132 30 -39 -1 -88 -7 -109 -14z"/>
<path d="M48637 3736 c-131 -47 -218 -184 -204 -320 12 -114 81 -211 185 -259
36 -17 66 -22 127 -21 99 0 160 28 228 104 60 66 81 130 75 224 -8 118 -64
203 -170 256 -51 25 -73 30 -132 30 -39 -1 -88 -7 -109 -14z"/>
<path d="M1154 2260 c-166 -66 -245 -253 -172 -411 64 -140 216 -213 361 -174
280 74 320 440 62 573 -69 35 -179 41 -251 12z"/>
<path d="M6744 2260 c-166 -66 -245 -253 -172 -411 63 -138 208 -211 349 -175
282 73 323 440 64 573 -69 36 -170 41 -241 13z"/>
<path d="M12324 2260 c-166 -66 -245 -253 -172 -411 64 -140 216 -213 361
-174 280 74 320 440 62 573 -69 35 -179 41 -251 12z"/>
<path d="M17914 2260 c-166 -66 -245 -253 -172 -411 63 -138 208 -211 349
-175 282 73 323 440 64 573 -69 36 -170 41 -241 13z"/>
<path d="M23494 2260 c-166 -66 -245 -253 -172 -411 64 -140 216 -213 361
-174 280 74 320 440 62 573 -69 35 -179 41 -251 12z"/>
<path d="M29084 2260 c-166 -66 -245 -253 -172 -411 63 -138 208 -211 349
-175 282 73 323 440 64 573 -69 36 -170 41 -241 13z"/>
<path d="M34664 2260 c-166 -66 -245 -253 -172 -411 64 -140 216 -213 361
-174 280 74 320 440 62 573 -69 35 -179 41 -251 12z"/>
<path d="M40254 2260 c-166 -66 -245 -253 -172 -411 63 -138 208 -211 349
-175 282 73 323 440 64 573 -69 36 -170 41 -241 13z"/>
<path d="M45834 2260 c-166 -66 -245 -253 -172 -411 64 -140 216 -213 361
-174 280 74 320 440 62 573 -69 35 -179 41 -251 12z"/>
<path d="M3957 796 c-131 -47 -218 -184 -204 -320 12 -114 81 -211 185 -259
36 -17 66 -22 127 -21 99 0 160 28 228 104 60 66 81 130 75 224 -8 118 -64
203 -170 256 -51 25 -73 30 -132 30 -39 -1 -88 -7 -109 -14z"/>
<path d="M9537 796 c-131 -47 -218 -184 -204 -320 12 -114 81 -211 185 -259
36 -17 66 -22 127 -21 99 0 160 28 228 104 60 66 81 130 75 224 -8 118 -64
203 -170 256 -51 25 -73 30 -132 30 -39 -1 -88 -7 -109 -14z"/>
<path d="M15127 796 c-131 -47 -218 -184 -204 -320 12 -114 81 -211 185 -259
36 -17 66 -22 127 -21 99 0 160 28 228 104 60 66 81 130 75 224 -8 118 -64
203 -170 256 -51 25 -73 30 -132 30 -39 -1 -88 -7 -109 -14z"/>
<path d="M20707 796 c-131 -47 -218 -184 -204 -320 12 -114 81 -211 185 -259
36 -17 66 -22 127 -21 99 0 160 28 228 104 60 66 81 130 75 224 -8 118 -64
203 -170 256 -51 25 -73 30 -132 30 -39 -1 -88 -7 -109 -14z"/>
<path d="M26297 796 c-131 -47 -218 -184 -204 -320 12 -114 81 -211 185 -259
36 -17 66 -22 127 -21 99 0 160 28 228 104 60 66 81 130 75 224 -8 118 -64
203 -170 256 -51 25 -73 30 -132 30 -39 -1 -88 -7 -109 -14z"/>
<path d="M31877 796 c-131 -47 -218 -184 -204 -320 12 -114 81 -211 185 -259
36 -17 66 -22 127 -21 99 0 160 28 228 104 60 66 81 130 75 224 -8 118 -64
203 -170 256 -51 25 -73 30 -132 30 -39 -1 -88 -7 -109 -14z"/>
<path d="M37467 796 c-131 -47 -218 -184 -204 -320 12 -114 81 -211 185 -259
36 -17 66 -22 127 -21 99 0 160 28 228 104 60 66 81 130 75 224 -8 118 -64
203 -170 256 -51 25 -73 30 -132 30 -39 -1 -88 -7 -109 -14z"/>
<path d="M43047 796 c-131 -47 -218 -184 -204 -320 12 -114 81 -211 185 -259
36 -17 66 -22 127 -21 99 0 160 28 228 104 60 66 81 130 75 224 -8 118 -64
203 -170 256 -51 25 -73 30 -132 30 -39 -1 -88 -7 -109 -14z"/>
<path d="M48637 796 c-131 -47 -218 -184 -204 -320 12 -114 81 -211 185 -259
36 -17 66 -22 127 -21 99 0 160 28 228 104 60 66 81 130 75 224 -8 118 -64
203 -170 256 -51 25 -73 30 -132 30 -39 -1 -88 -7 -109 -14z"/>
</g>
</svg>
