<?xml version="1.0" encoding="UTF-8" standalone="no"?>
<!DOCTYPE svg PUBLIC "-//W3C//DTD SVG 1.1//EN" "http://www.w3.org/Graphics/SVG/1.1/DTD/svg11.dtd">
<svg xmlns="http://www.w3.org/2000/svg" version="1.1" viewBox="0.00 0.00 1080.00 1080.00">
<g stroke-width="2.00" fill="none" stroke-linecap="butt">
<path stroke="#808080" vector-effect="non-scaling-stroke" d="
  M 752.70 205.75
  C 762.03 185.23 797.17 176.61 817.34 174.38
  A 0.41 0.40 64.3 0 0 817.58 173.69
  C 815.74 171.84 813.52 171.36 811.56 170.48
  C 777.28 155.14 739.99 158.92 711.65 184.63
  Q 711.36 184.89 711.16 184.55
  Q 707.47 178.15 702.54 172.46
  Q 671.83 137.06 625.85 131.38
  C 607.72 129.14 589.64 132.81 572.01 126.01
  C 539.58 113.50 522.68 76.97 514.41 45.56
  Q 514.29 45.13 514.09 45.52
  Q 507.34 58.64 504.44 69.23
  C 497.11 96.02 507.41 123.33 526.27 142.67
  A 0.34 0.34 0.0 0 1 525.88 143.22
  C 509.78 135.77 491.90 132.59 474.24 131.96
  C 470.99 131.85 467.67 131.25 464.57 131.31
  Q 426.94 131.95 390.61 141.36
  Q 381.60 143.69 376.21 144.18
  C 346.90 146.83 317.89 138.36 299.93 113.77
  C 299.32 112.94 298.83 111.64 297.58 111.36
  Q 296.75 111.17 296.71 112.02
  C 295.87 131.11 301.85 145.15 315.00 158.65
  Q 330.08 174.11 350.14 183.03
  A 1.19 1.18 -7.5 0 1 350.55 183.34
  Q 351.48 184.46 352.67 185.20
  Q 352.92 185.35 352.63 185.41
  C 308.95 194.62 270.55 222.28 252.47 263.33
  Q 251.40 265.77 253.69 264.42
  C 276.16 251.27 305.63 246.38 331.34 245.80
  Q 331.91 245.79 331.79 246.34
  Q 329.75 256.03 329.75 260.75
  Q 329.76 330.47 329.75 400.21
  Q 329.75 400.75 329.24 400.55
  C 325.33 399.01 321.02 396.86 317.58 395.66
  C 270.97 379.45 218.96 399.37 198.63 445.01
  C 192.11 459.64 188.60 474.66 191.30 490.72
  C 201.94 553.99 268.19 587.39 325.99 560.66
  A 0.38 0.38 0.0 0 1 326.45 561.25
  C 314.57 575.99 308.34 591.20 305.95 610.15
  C 303.17 632.16 300.56 655.84 299.97 678.94
  Q 299.95 679.48 300.49 679.50
  C 306.45 679.65 312.61 676.19 316.94 672.42
  A 0.55 0.55 0.0 0 1 317.85 672.87
  C 314.40 716.32 346.56 757.61 374.92 789.59
  Q 375.25 789.96 375.57 790.01
  A 0.43 0.43 0.0 0 0 375.97 789.33
  Q 369.27 780.55 368.07 769.50
  Q 368.01 768.90 368.54 769.19
  Q 371.47 770.79 373.67 773.83
  Q 388.82 794.83 411.20 807.56
  Q 416.55 810.61 429.32 815.97
  Q 455.05 826.77 480.00 839.32
  Q 481.90 840.28 482.89 840.11
  Q 484.10 839.91 483.20 839.07
  L 471.11 827.91
  A 0.33 0.32 -15.7 0 1 471.42 827.36
  Q 488.10 832.09 505.07 834.57
  Q 509.76 835.26 513.74 836.75
  Q 528.33 842.25 542.74 848.46
  Q 543.20 848.66 543.67 848.45
  C 555.96 842.91 570.42 836.04 583.74 833.89
  Q 599.13 831.40 614.52 827.08
  A 0.72 0.72 0.0 0 1 615.17 828.34
  C 611.08 831.61 605.70 835.59 602.42 839.84
  A 0.48 0.47 -84.0 0 0 603.00 840.56
  C 625.66 829.74 640.93 822.42 658.58 815.21
  C 676.82 807.76 691.79 797.93 705.04 783.22
  C 709.06 778.76 712.34 773.66 715.71 768.48
  Q 717.33 765.99 717.65 768.94
  C 718.42 775.97 714.34 783.37 709.87 789.81
  Q 709.64 790.14 710.04 790.21
  Q 710.27 790.26 710.51 790.01
  C 739.12 760.04 770.96 716.73 768.41 672.98
  A 0.45 0.45 0.0 0 1 769.11 672.58
  C 774.18 676.10 779.26 679.61 785.92 679.45
  Q 786.39 679.44 786.37 678.96
  C 785.14 656.07 783.03 629.60 779.60 605.74
  C 777.39 590.43 771.83 577.66 762.95 565.45
  A 0.62 0.61 81.2 0 1 763.64 564.50
  C 801.00 577.20 848.37 566.21 871.09 531.75
  C 885.80 509.44 892.00 486.57 885.84 460.34
  C 883.82 451.75 881.28 443.29 877.00 435.99
  C 851.88 393.12 796.50 378.30 752.26 400.05
  A 0.73 0.73 0.0 0 1 751.20 399.39
  Q 751.59 336.76 750.12 273.79
  C 750.00 268.27 766.50 259.98 771.43 257.91
  Q 793.76 248.54 817.16 246.46
  Q 818.61 246.33 817.87 245.08
  C 804.10 221.72 780.69 206.65 753.06 206.33
  Q 752.44 206.32 752.70 205.75"
/>
<path stroke="#808080" vector-effect="non-scaling-stroke" d="
  M 659.76 958.31
  Q 664.34 950.04 668.92 942.72
  Q 700.66 892.02 730.92 840.43
  C 744.09 817.97 757.30 795.23 767.85 771.35
  A 0.46 0.46 0.0 0 0 767.20 770.76
  C 766.47 771.17 765.34 771.67 764.68 772.20
  C 734.85 796.27 702.38 818.64 667.71 835.16
  C 649.74 843.73 632.56 849.82 613.67 851.53
  A 0.41 0.41 0.0 0 0 613.35 852.15
  C 626.26 873.44 637.98 896.21 647.32 919.34
  Q 654.78 937.79 658.22 957.49
  Q 658.40 958.51 658.90 958.66
  Q 659.47 958.83 659.76 958.31"
/>
<path stroke="#808080" vector-effect="non-scaling-stroke" d="
  M 472.20 852.48
  C 447.30 850.37 421.85 839.11 400.06 826.70
  Q 358.34 802.95 320.13 771.67
  Q 318.55 770.38 319.26 772.29
  C 324.60 786.78 332.81 800.74 340.52 814.32
  C 368.55 863.66 397.70 912.19 428.04 960.14
  Q 428.50 960.86 428.63 960.02
  C 434.44 922.95 454.00 886.25 473.03 854.08
  A 1.06 1.06 0.0 0 0 472.20 852.48"
/>
<path stroke="#808080" vector-effect="non-scaling-stroke" d="
  M 553.73 922.50
  A 1.95 1.95 0.0 0 1 555.01 922.98
  C 570.01 936.31 586.55 942.57 605.92 947.27
  A 0.86 0.86 0.0 0 0 606.94 946.69
  Q 611.59 931.79 613.21 915.96
  C 613.85 909.72 614.90 903.42 614.71 897.32
  Q 614.02 874.49 607.94 852.40
  Q 607.54 850.97 606.83 849.74
  Q 606.58 849.31 606.09 849.39
  Q 577.11 854.41 554.81 873.38
  Q 554.38 873.75 553.81 873.75
  L 531.02 873.75
  Q 530.52 873.75 530.14 873.42
  Q 507.70 854.14 478.34 849.44
  Q 477.84 849.36 477.71 849.84
  C 471.69 872.76 468.61 895.55 472.13 919.68
  Q 474.12 933.32 477.73 946.60
  Q 477.89 947.16 478.45 947.06
  Q 507.84 942.05 530.43 922.81
  Q 530.80 922.50 531.29 922.50
  L 553.73 922.50"
/>
<path stroke="#808080" vector-effect="non-scaling-stroke" d="
  M 458.23 529.93
  Q 461.60 529.89 458.43 531.04
  Q 451.92 533.40 445.23 536.03
  C 391.73 557.14 351.28 601.80 348.83 661.72
  C 348.29 674.95 347.87 690.43 353.14 702.84
  C 378.63 762.87 431.68 800.05 495.03 811.65
  C 542.58 820.36 592.55 816.67 637.00 797.99
  C 681.26 779.40 718.58 743.26 734.82 697.61
  Q 736.29 693.48 736.69 688.70
  C 737.79 675.82 738.11 664.52 736.65 651.68
  C 729.67 590.58 682.28 547.89 626.04 530.62
  A 0.42 0.42 0.0 0 1 626.18 529.80
  C 656.44 530.58 683.39 520.60 704.73 499.75
  Q 713.19 491.48 717.21 486.20
  C 726.62 473.83 732.77 459.59 737.54 444.68
  Q 739.28 439.25 739.75 435.15
  C 740.52 428.42 739.44 420.53 739.51 415.12
  Q 739.77 392.93 739.46 370.73
  C 739.43 368.22 738.87 365.23 738.02 363.23
  C 724.34 331.24 693.58 320.12 660.72 318.90
  A 0.06 0.06 0.0 0 1 660.68 318.80
  C 664.09 315.78 667.34 314.34 672.32 312.09
  C 684.31 306.67 695.76 306.05 708.05 304.77
  A 0.43 0.43 0.0 0 0 708.09 303.92
  C 699.43 302.10 690.29 299.65 682.20 298.48
  C 628.99 290.82 580.28 300.56 543.09 341.21
  Q 542.71 341.63 542.33 341.22
  C 505.72 302.17 461.20 291.47 408.88 297.71
  C 398.45 298.96 387.42 301.66 376.76 304.06
  A 0.39 0.38 -49.6 0 0 376.82 304.82
  C 394.72 305.84 409.95 308.57 424.94 318.64
  Q 425.41 318.96 424.84 318.97
  Q 414.26 319.22 402.49 321.49
  C 359.49 329.80 337.84 362.15 342.47 405.07
  C 343.10 410.96 342.78 417.38 343.34 421.93
  Q 344.29 429.61 347.82 442.30
  C 362.20 493.95 402.62 530.54 458.23 529.93"
/>
<path stroke="#808080" vector-effect="non-scaling-stroke" d="
  M 226.38 470.05
  Q 226.34 468.27 226.99 465.98
  C 235.44 436.10 264.91 420.30 294.92 426.40
  C 308.87 429.24 318.03 435.73 328.27 445.11
  Q 329.13 445.89 329.89 445.01
  Q 330.22 444.63 330.23 443.25
  Q 330.26 429.68 330.25 416.77
  A 2.90 2.89 -74.5 0 0 328.87 414.32
  C 287.63 389.23 231.46 403.46 210.33 447.92
  C 188.68 493.48 216.83 543.19 263.83 555.42
  C 283.78 560.60 305.46 558.04 323.63 548.56
  C 333.44 543.44 339.27 536.36 346.28 528.13
  C 349.11 524.81 345.96 512.02 344.34 507.15
  Q 344.13 506.55 343.67 506.98
  C 341.14 509.30 339.24 512.62 337.02 514.51
  C 314.91 533.33 280.39 515.74 284.25 486.73
  C 284.89 481.91 287.01 477.89 290.28 474.52
  A 0.88 0.87 -26.5 0 1 291.78 475.02
  Q 292.81 483.85 299.06 490.04
  Q 299.43 490.41 299.51 490.92
  Q 299.87 493.37 300.77 494.26
  Q 310.93 504.25 325.02 502.99
  C 329.27 502.60 331.90 502.62 334.29 499.76
  A 1.43 1.39 65.7 0 0 334.62 498.85
  Q 334.56 490.97 331.96 483.51
  C 316.53 439.13 263.38 428.76 232.31 463.85
  Q 231.97 464.25 231.83 464.75
  Q 230.75 468.61 227.22 470.54
  A 0.57 0.57 0.0 0 1 226.38 470.05"
/>
<path stroke="#808080" vector-effect="non-scaling-stroke" d="
  M 789.26 474.79
  A 0.78 0.77 26.9 0 1 790.58 474.36
  C 795.28 479.12 797.29 484.53 797.13 491.41
  C 796.55 515.05 771.07 529.47 750.20 518.69
  C 747.31 517.19 744.34 514.70 741.39 512.66
  Q 740.93 512.34 740.68 512.84
  C 738.19 517.76 738.44 528.32 738.68 533.83
  Q 738.81 536.56 741.38 538.57
  C 760.65 553.61 783.36 560.70 807.40 557.19
  C 843.45 551.93 873.37 523.45 876.84 486.50
  C 878.93 464.20 870.14 441.85 854.30 426.20
  C 827.42 399.63 786.39 394.20 753.21 413.07
  A 2.72 2.72 0.0 0 0 751.84 415.61
  L 753.50 441.44
  A 1.13 1.13 0.0 0 0 755.39 442.21
  Q 770.67 428.26 790.02 425.61
  C 819.45 421.59 849.31 439.83 854.22 469.99
  A 0.69 0.69 0.0 0 1 852.95 470.46
  C 834.43 439.99 791.75 433.79 765.22 457.55
  C 754.80 466.88 746.04 483.29 746.46 497.41
  C 746.55 500.40 748.29 501.76 750.97 502.32
  C 760.20 504.26 773.73 502.53 779.87 494.39
  Q 780.18 493.97 784.55 487.31
  Q 788.32 481.57 789.26 474.79"
/>
<path stroke="#808080" vector-effect="non-scaling-stroke" d="
  M 473.02 338.18
  C 443.32 327.97 412.71 336.47 391.36 359.05
  C 390.29 360.17 389.35 361.92 388.53 363.26
  A 0.52 0.52 0.0 0 0 389.26 363.97
  C 410.22 350.21 436.06 340.79 461.32 340.07
  C 465.51 339.95 469.11 339.38 472.98 338.71
  Q 474.03 338.52 473.02 338.18"
/>
<path stroke="#808080" vector-effect="non-scaling-stroke" d="
  M 607.07 338.96
  C 617.29 340.19 628.62 340.50 637.56 342.35
  C 656.77 346.35 672.81 353.66 689.72 363.38
  A 0.58 0.58 0.0 0 0 690.49 362.56
  C 678.45 344.70 654.19 334.80 633.68 333.85
  C 625.16 333.45 616.74 334.96 608.51 337.29
  Q 607.41 337.60 606.82 338.32
  Q 606.36 338.88 607.07 338.96"
/>
<path stroke="#808080" vector-effect="non-scaling-stroke" d="
  M 374.73 464.48
  Q 378.26 477.65 384.11 489.99
  C 398.41 520.19 446.37 524.81 473.88 515.73
  C 496.95 508.12 510.42 485.43 520.01 464.54
  Q 525.67 452.23 527.27 440.76
  Q 527.57 438.56 529.86 431.28
  C 533.51 419.65 535.41 418.44 547.79 419.29
  C 558.59 420.03 560.92 435.85 563.45 443.68
  Q 565.13 448.87 565.59 450.71
  C 571.74 475.39 585.16 499.96 608.55 511.18
  C 642.71 527.55 689.54 519.61 707.56 482.81
  Q 710.56 476.67 713.83 463.88
  C 717.14 450.95 719.86 438.68 723.76 425.01
  Q 726.62 414.97 734.05 409.04
  C 735.16 408.15 735.97 406.37 735.98 404.94
  Q 736.04 395.46 735.97 386.00
  C 735.95 382.19 733.90 379.94 730.14 379.06
  C 717.47 376.10 704.04 371.23 692.64 368.94
  C 678.09 366.03 663.26 363.94 648.34 364.80
  C 623.03 366.26 591.21 376.31 561.30 380.54
  Q 538.48 383.77 515.99 378.82
  C 503.23 376.02 487.37 371.63 473.44 369.28
  C 452.70 365.77 432.96 363.55 411.78 365.77
  C 405.97 366.38 399.84 367.83 393.91 369.09
  C 379.36 372.18 364.96 376.10 350.45 379.30
  A 1.19 1.19 0.0 0 0 349.51 380.45
  C 349.45 389.27 347.96 402.38 353.52 409.48
  C 358.91 416.37 363.37 421.48 365.14 429.60
  Q 368.94 447.08 374.34 464.09
  Q 374.37 464.18 374.43 464.22
  Q 374.47 464.24 374.52 464.26
  Q 374.69 464.33 374.73 464.48"
/>
<path stroke="#808080" vector-effect="non-scaling-stroke" d="
  M 518.95 549.14
  C 522.23 550.59 525.66 550.80 529.01 552.22
  Q 529.85 552.58 529.26 551.98
  Q 529.09 551.81 528.76 551.74
  C 525.86 548.27 523.96 545.25 518.52 544.92
  Q 513.99 544.65 513.57 548.92
  Q 513.49 549.64 514.14 549.33
  C 516.02 548.46 516.94 548.25 518.95 549.14"
/>
<path stroke="#808080" vector-effect="non-scaling-stroke" d="
  M 567.56 546.12
  Q 559.40 542.53 555.40 550.23
  Q 555.20 550.61 554.82 550.82
  L 553.56 551.51
  Q 552.58 552.05 553.67 551.80
  Q 560.77 550.19 567.74 548.23
  Q 569.00 547.88 568.14 546.61
  A 1.37 1.35 84.8 0 0 567.56 546.12"
/>
<path stroke="#808080" vector-effect="non-scaling-stroke" d="
  M 416.57 632.75
  C 419.61 678.28 466.68 706.74 506.49 715.25
  C 557.57 726.17 618.06 715.32 653.52 673.80
  Q 672.62 651.43 671.30 621.43
  A 0.42 0.42 0.0 0 0 670.46 621.38
  C 661.62 674.05 606.79 697.97 559.46 701.40
  C 532.87 703.32 508.03 700.76 482.84 691.63
  C 453.65 681.06 425.69 660.26 418.53 628.24
  Q 418.02 625.99 418.32 621.22
  Q 418.32 621.11 418.21 621.07
  Q 418.06 621.02 417.91 620.97
  Q 417.72 620.91 417.71 621.11
  Q 417.44 624.85 415.89 628.26
  Q 415.67 628.75 415.85 629.25
  Q 416.45 630.96 416.57 632.75"
/>
<path stroke="#808080" vector-effect="non-scaling-stroke" d="
  M 422.16 504.75
  Q 431.21 507.33 440.65 507.42
  A 0.51 0.50 5.5 0 0 441.15 507.02
  L 466.64 378.68
  A 0.86 0.85 7.2 0 0 465.84 377.66
  L 447.33 376.81
  Q 446.19 376.75 445.97 377.87
  L 421.27 503.30
  A 1.26 1.26 0.0 0 0 422.16 504.75"
/>
<path stroke="#808080" vector-effect="non-scaling-stroke" d="
  M 623.65 504.22
  C 628.06 506.94 636.65 507.37 641.49 507.51
  A 1.76 1.75 6.4 0 0 643.26 506.10
  L 668.34 380.06
  Q 668.46 379.46 667.85 379.40
  L 648.56 377.43
  Q 647.95 377.37 647.83 377.97
  L 623.25 503.29
  A 0.90 0.88 -68.8 0 0 623.65 504.22"
/>
</g>
<path fill="#ffffff" d="
  M 0.00 0.00
  L 1080.00 0.00
  L 1080.00 1080.00
  L 0.00 1080.00
  L 0.00 0.00
  Z
  M 752.70 205.75
  C 762.03 185.23 797.17 176.61 817.34 174.38
  A 0.41 0.40 64.3 0 0 817.58 173.69
  C 815.74 171.84 813.52 171.36 811.56 170.48
  C 777.28 155.14 739.99 158.92 711.65 184.63
  Q 711.36 184.89 711.16 184.55
  Q 707.47 178.15 702.54 172.46
  Q 671.83 137.06 625.85 131.38
  C 607.72 129.14 589.64 132.81 572.01 126.01
  C 539.58 113.50 522.68 76.97 514.41 45.56
  Q 514.29 45.13 514.09 45.52
  Q 507.34 58.64 504.44 69.23
  C 497.11 96.02 507.41 123.33 526.27 142.67
  A 0.34 0.34 0.0 0 1 525.88 143.22
  C 509.78 135.77 491.90 132.59 474.24 131.96
  C 470.99 131.85 467.67 131.25 464.57 131.31
  Q 426.94 131.95 390.61 141.36
  Q 381.60 143.69 376.21 144.18
  C 346.90 146.83 317.89 138.36 299.93 113.77
  C 299.32 112.94 298.83 111.64 297.58 111.36
  Q 296.75 111.17 296.71 112.02
  C 295.87 131.11 301.85 145.15 315.00 158.65
  Q 330.08 174.11 350.14 183.03
  A 1.19 1.18 -7.5 0 1 350.55 183.34
  Q 351.48 184.46 352.67 185.20
  Q 352.92 185.35 352.63 185.41
  C 308.95 194.62 270.55 222.28 252.47 263.33
  Q 251.40 265.77 253.69 264.42
  C 276.16 251.27 305.63 246.38 331.34 245.80
  Q 331.91 245.79 331.79 246.34
  Q 329.75 256.03 329.75 260.75
  Q 329.76 330.47 329.75 400.21
  Q 329.75 400.75 329.24 400.55
  C 325.33 399.01 321.02 396.86 317.58 395.66
  C 270.97 379.45 218.96 399.37 198.63 445.01
  C 192.11 459.64 188.60 474.66 191.30 490.72
  C 201.94 553.99 268.19 587.39 325.99 560.66
  A 0.38 0.38 0.0 0 1 326.45 561.25
  C 314.57 575.99 308.34 591.20 305.95 610.15
  C 303.17 632.16 300.56 655.84 299.97 678.94
  Q 299.95 679.48 300.49 679.50
  C 306.45 679.65 312.61 676.19 316.94 672.42
  A 0.55 0.55 0.0 0 1 317.85 672.87
  C 314.40 716.32 346.56 757.61 374.92 789.59
  Q 375.25 789.96 375.57 790.01
  A 0.43 0.43 0.0 0 0 375.97 789.33
  Q 369.27 780.55 368.07 769.50
  Q 368.01 768.90 368.54 769.19
  Q 371.47 770.79 373.67 773.83
  Q 388.82 794.83 411.20 807.56
  Q 416.55 810.61 429.32 815.97
  Q 455.05 826.77 480.00 839.32
  Q 481.90 840.28 482.89 840.11
  Q 484.10 839.91 483.20 839.07
  L 471.11 827.91
  A 0.33 0.32 -15.7 0 1 471.42 827.36
  Q 488.10 832.09 505.07 834.57
  Q 509.76 835.26 513.74 836.75
  Q 528.33 842.25 542.74 848.46
  Q 543.20 848.66 543.67 848.45
  C 555.96 842.91 570.42 836.04 583.74 833.89
  Q 599.13 831.40 614.52 827.08
  A 0.72 0.72 0.0 0 1 615.17 828.34
  C 611.08 831.61 605.70 835.59 602.42 839.84
  A 0.48 0.47 -84.0 0 0 603.00 840.56
  C 625.66 829.74 640.93 822.42 658.58 815.21
  C 676.82 807.76 691.79 797.93 705.04 783.22
  C 709.06 778.76 712.34 773.66 715.71 768.48
  Q 717.33 765.99 717.65 768.94
  C 718.42 775.97 714.34 783.37 709.87 789.81
  Q 709.64 790.14 710.04 790.21
  Q 710.27 790.26 710.51 790.01
  C 739.12 760.04 770.96 716.73 768.41 672.98
  A 0.45 0.45 0.0 0 1 769.11 672.58
  C 774.18 676.10 779.26 679.61 785.92 679.45
  Q 786.39 679.44 786.37 678.96
  C 785.14 656.07 783.03 629.60 779.60 605.74
  C 777.39 590.43 771.83 577.66 762.95 565.45
  A 0.62 0.61 81.2 0 1 763.64 564.50
  C 801.00 577.20 848.37 566.21 871.09 531.75
  C 885.80 509.44 892.00 486.57 885.84 460.34
  C 883.82 451.75 881.28 443.29 877.00 435.99
  C 851.88 393.12 796.50 378.30 752.26 400.05
  A 0.73 0.73 0.0 0 1 751.20 399.39
  Q 751.59 336.76 750.12 273.79
  C 750.00 268.27 766.50 259.98 771.43 257.91
  Q 793.76 248.54 817.16 246.46
  Q 818.61 246.33 817.87 245.08
  C 804.10 221.72 780.69 206.65 753.06 206.33
  Q 752.44 206.32 752.70 205.75
  Z
  M 659.76 958.31
  Q 664.34 950.04 668.92 942.72
  Q 700.66 892.02 730.92 840.43
  C 744.09 817.97 757.30 795.23 767.85 771.35
  A 0.46 0.46 0.0 0 0 767.20 770.76
  C 766.47 771.17 765.34 771.67 764.68 772.20
  C 734.85 796.27 702.38 818.64 667.71 835.16
  C 649.74 843.73 632.56 849.82 613.67 851.53
  A 0.41 0.41 0.0 0 0 613.35 852.15
  C 626.26 873.44 637.98 896.21 647.32 919.34
  Q 654.78 937.79 658.22 957.49
  Q 658.40 958.51 658.90 958.66
  Q 659.47 958.83 659.76 958.31
  Z
  M 472.20 852.48
  C 447.30 850.37 421.85 839.11 400.06 826.70
  Q 358.34 802.95 320.13 771.67
  Q 318.55 770.38 319.26 772.29
  C 324.60 786.78 332.81 800.74 340.52 814.32
  C 368.55 863.66 397.70 912.19 428.04 960.14
  Q 428.50 960.86 428.63 960.02
  C 434.44 922.95 454.00 886.25 473.03 854.08
  A 1.06 1.06 0.0 0 0 472.20 852.48
  Z
  M 553.73 922.50
  A 1.95 1.95 0.0 0 1 555.01 922.98
  C 570.01 936.31 586.55 942.57 605.92 947.27
  A 0.86 0.86 0.0 0 0 606.94 946.69
  Q 611.59 931.79 613.21 915.96
  C 613.85 909.72 614.90 903.42 614.71 897.32
  Q 614.02 874.49 607.94 852.40
  Q 607.54 850.97 606.83 849.74
  Q 606.58 849.31 606.09 849.39
  Q 577.11 854.41 554.81 873.38
  Q 554.38 873.75 553.81 873.75
  L 531.02 873.75
  Q 530.52 873.75 530.14 873.42
  Q 507.70 854.14 478.34 849.44
  Q 477.84 849.36 477.71 849.84
  C 471.69 872.76 468.61 895.55 472.13 919.68
  Q 474.12 933.32 477.73 946.60
  Q 477.89 947.16 478.45 947.06
  Q 507.84 942.05 530.43 922.81
  Q 530.80 922.50 531.29 922.50
  L 553.73 922.50
  Z"
/>
<path fill="#000000" d="
  M 753.06 206.33
  C 780.69 206.65 804.10 221.72 817.87 245.08
  Q 818.61 246.33 817.16 246.46
  Q 793.76 248.54 771.43 257.91
  C 766.50 259.98 750.00 268.27 750.12 273.79
  Q 751.59 336.76 751.20 399.39
  A 0.73 0.73 0.0 0 0 752.26 400.05
  C 796.50 378.30 851.88 393.12 877.00 435.99
  C 881.28 443.29 883.82 451.75 885.84 460.34
  C 892.00 486.57 885.80 509.44 871.09 531.75
  C 848.37 566.21 801.00 577.20 763.64 564.50
  A 0.62 0.61 81.2 0 0 762.95 565.45
  C 771.83 577.66 777.39 590.43 779.60 605.74
  C 783.03 629.60 785.14 656.07 786.37 678.96
  Q 786.39 679.44 785.92 679.45
  C 779.26 679.61 774.18 676.10 769.11 672.58
  A 0.45 0.45 0.0 0 0 768.41 672.98
  C 770.96 716.73 739.12 760.04 710.51 790.01
  Q 710.27 790.26 710.04 790.21
  Q 709.64 790.14 709.87 789.81
  C 714.34 783.37 718.42 775.97 717.65 768.94
  Q 717.33 765.99 715.71 768.48
  C 712.34 773.66 709.06 778.76 705.04 783.22
  C 691.79 797.93 676.82 807.76 658.58 815.21
  C 640.93 822.42 625.66 829.74 603.00 840.56
  A 0.48 0.47 -84.0 0 1 602.42 839.84
  C 605.70 835.59 611.08 831.61 615.17 828.34
  A 0.72 0.72 0.0 0 0 614.52 827.08
  Q 599.13 831.40 583.74 833.89
  C 570.42 836.04 555.96 842.91 543.67 848.45
  Q 543.20 848.66 542.74 848.46
  Q 528.33 842.25 513.74 836.75
  Q 509.76 835.26 505.07 834.57
  Q 488.10 832.09 471.42 827.36
  A 0.33 0.32 -15.7 0 0 471.11 827.91
  L 483.20 839.07
  Q 484.10 839.91 482.89 840.11
  Q 481.90 840.28 480.00 839.32
  Q 455.05 826.77 429.32 815.97
  Q 416.55 810.61 411.20 807.56
  Q 388.82 794.83 373.67 773.83
  Q 371.47 770.79 368.54 769.19
  Q 368.01 768.90 368.07 769.50
  Q 369.27 780.55 375.97 789.33
  A 0.43 0.43 0.0 0 1 375.57 790.01
  Q 375.25 789.96 374.92 789.59
  C 346.56 757.61 314.40 716.32 317.85 672.87
  A 0.55 0.55 0.0 0 0 316.94 672.42
  C 312.61 676.19 306.45 679.65 300.49 679.50
  Q 299.95 679.48 299.97 678.94
  C 300.56 655.84 303.17 632.16 305.95 610.15
  C 308.34 591.20 314.57 575.99 326.45 561.25
  A 0.38 0.38 0.0 0 0 325.99 560.66
  C 268.19 587.39 201.94 553.99 191.30 490.72
  C 188.60 474.66 192.11 459.64 198.63 445.01
  C 218.96 399.37 270.97 379.45 317.58 395.66
  C 321.02 396.86 325.33 399.01 329.24 400.55
  Q 329.75 400.75 329.75 400.21
  Q 329.76 330.47 329.75 260.75
  Q 329.75 256.03 331.79 246.34
  Q 331.91 245.79 331.34 245.80
  C 305.63 246.38 276.16 251.27 253.69 264.42
  Q 251.40 265.77 252.47 263.33
  C 270.55 222.28 308.95 194.62 352.63 185.41
  Q 352.92 185.35 352.67 185.20
  Q 351.48 184.46 350.55 183.34
  A 1.19 1.18 -7.5 0 0 350.14 183.03
  Q 330.08 174.11 315.00 158.65
  C 301.85 145.15 295.87 131.11 296.71 112.02
  Q 296.75 111.17 297.58 111.36
  C 298.83 111.64 299.32 112.94 299.93 113.77
  C 317.89 138.36 346.90 146.83 376.21 144.18
  Q 381.60 143.69 390.61 141.36
  Q 426.94 131.95 464.57 131.31
  C 467.67 131.25 470.99 131.85 474.24 131.96
  C 491.90 132.59 509.78 135.77 525.88 143.22
  A 0.34 0.34 0.0 0 0 526.27 142.67
  C 507.41 123.33 497.11 96.02 504.44 69.23
  Q 507.34 58.64 514.09 45.52
  Q 514.29 45.13 514.41 45.56
  C 522.68 76.97 539.58 113.50 572.01 126.01
  C 589.64 132.81 607.72 129.14 625.85 131.38
  Q 671.83 137.06 702.54 172.46
  Q 707.47 178.15 711.16 184.55
  Q 711.36 184.89 711.65 184.63
  C 739.99 158.92 777.28 155.14 811.56 170.48
  C 813.52 171.36 815.74 171.84 817.58 173.69
  A 0.41 0.40 64.3 0 1 817.34 174.38
  C 797.17 176.61 762.03 185.23 752.70 205.75
  Q 752.44 206.32 753.06 206.33
  Z
  M 458.23 529.93
  Q 461.60 529.89 458.43 531.04
  Q 451.92 533.40 445.23 536.03
  C 391.73 557.14 351.28 601.80 348.83 661.72
  C 348.29 674.95 347.87 690.43 353.14 702.84
  C 378.63 762.87 431.68 800.05 495.03 811.65
  C 542.58 820.36 592.55 816.67 637.00 797.99
  C 681.26 779.40 718.58 743.26 734.82 697.61
  Q 736.29 693.48 736.69 688.70
  C 737.79 675.82 738.11 664.52 736.65 651.68
  C 729.67 590.58 682.28 547.89 626.04 530.62
  A 0.42 0.42 0.0 0 1 626.18 529.80
  C 656.44 530.58 683.39 520.60 704.73 499.75
  Q 713.19 491.48 717.21 486.20
  C 726.62 473.83 732.77 459.59 737.54 444.68
  Q 739.28 439.25 739.75 435.15
  C 740.52 428.42 739.44 420.53 739.51 415.12
  Q 739.77 392.93 739.46 370.73
  C 739.43 368.22 738.87 365.23 738.02 363.23
  C 724.34 331.24 693.58 320.12 660.72 318.90
  A 0.06 0.06 0.0 0 1 660.68 318.80
  C 664.09 315.78 667.34 314.34 672.32 312.09
  C 684.31 306.67 695.76 306.05 708.05 304.77
  A 0.43 0.43 0.0 0 0 708.09 303.92
  C 699.43 302.10 690.29 299.65 682.20 298.48
  C 628.99 290.82 580.28 300.56 543.09 341.21
  Q 542.71 341.63 542.33 341.22
  C 505.72 302.17 461.20 291.47 408.88 297.71
  C 398.45 298.96 387.42 301.66 376.76 304.06
  A 0.39 0.38 -49.6 0 0 376.82 304.82
  C 394.72 305.84 409.95 308.57 424.94 318.64
  Q 425.41 318.96 424.84 318.97
  Q 414.26 319.22 402.49 321.49
  C 359.49 329.80 337.84 362.15 342.47 405.07
  C 343.10 410.96 342.78 417.38 343.34 421.93
  Q 344.29 429.61 347.82 442.30
  C 362.20 493.95 402.62 530.54 458.23 529.93
  Z
  M 226.38 470.05
  Q 226.34 468.27 226.99 465.98
  C 235.44 436.10 264.91 420.30 294.92 426.40
  C 308.87 429.24 318.03 435.73 328.27 445.11
  Q 329.13 445.89 329.89 445.01
  Q 330.22 444.63 330.23 443.25
  Q 330.26 429.68 330.25 416.77
  A 2.90 2.89 -74.5 0 0 328.87 414.32
  C 287.63 389.23 231.46 403.46 210.33 447.92
  C 188.68 493.48 216.83 543.19 263.83 555.42
  C 283.78 560.60 305.46 558.04 323.63 548.56
  C 333.44 543.44 339.27 536.36 346.28 528.13
  C 349.11 524.81 345.96 512.02 344.34 507.15
  Q 344.13 506.55 343.67 506.98
  C 341.14 509.30 339.24 512.62 337.02 514.51
  C 314.91 533.33 280.39 515.74 284.25 486.73
  C 284.89 481.91 287.01 477.89 290.28 474.52
  A 0.88 0.87 -26.5 0 1 291.78 475.02
  Q 292.81 483.85 299.06 490.04
  Q 299.43 490.41 299.51 490.92
  Q 299.87 493.37 300.77 494.26
  Q 310.93 504.25 325.02 502.99
  C 329.27 502.60 331.90 502.62 334.29 499.76
  A 1.43 1.39 65.7 0 0 334.62 498.85
  Q 334.56 490.97 331.96 483.51
  C 316.53 439.13 263.38 428.76 232.31 463.85
  Q 231.97 464.25 231.83 464.75
  Q 230.75 468.61 227.22 470.54
  A 0.57 0.57 0.0 0 1 226.38 470.05
  Z
  M 789.26 474.79
  A 0.78 0.77 26.9 0 1 790.58 474.36
  C 795.28 479.12 797.29 484.53 797.13 491.41
  C 796.55 515.05 771.07 529.47 750.20 518.69
  C 747.31 517.19 744.34 514.70 741.39 512.66
  Q 740.93 512.34 740.68 512.84
  C 738.19 517.76 738.44 528.32 738.68 533.83
  Q 738.81 536.56 741.38 538.57
  C 760.65 553.61 783.36 560.70 807.40 557.19
  C 843.45 551.93 873.37 523.45 876.84 486.50
  C 878.93 464.20 870.14 441.85 854.30 426.20
  C 827.42 399.63 786.39 394.20 753.21 413.07
  A 2.72 2.72 0.0 0 0 751.84 415.61
  L 753.50 441.44
  A 1.13 1.13 0.0 0 0 755.39 442.21
  Q 770.67 428.26 790.02 425.61
  C 819.45 421.59 849.31 439.83 854.22 469.99
  A 0.69 0.69 0.0 0 1 852.95 470.46
  C 834.43 439.99 791.75 433.79 765.22 457.55
  C 754.80 466.88 746.04 483.29 746.46 497.41
  C 746.55 500.40 748.29 501.76 750.97 502.32
  C 760.20 504.26 773.73 502.53 779.87 494.39
  Q 780.18 493.97 784.55 487.31
  Q 788.32 481.57 789.26 474.79
  Z"
/>
<path fill="#ffffff" d="
  M 458.23 529.93
  C 402.62 530.54 362.20 493.95 347.82 442.30
  Q 344.29 429.61 343.34 421.93
  C 342.78 417.38 343.10 410.96 342.47 405.07
  C 337.84 362.15 359.49 329.80 402.49 321.49
  Q 414.26 319.22 424.84 318.97
  Q 425.41 318.96 424.94 318.64
  C 409.95 308.57 394.72 305.84 376.82 304.82
  A 0.39 0.38 -49.6 0 1 376.76 304.06
  C 387.42 301.66 398.45 298.96 408.88 297.71
  C 461.20 291.47 505.72 302.17 542.33 341.22
  Q 542.71 341.63 543.09 341.21
  C 580.28 300.56 628.99 290.82 682.20 298.48
  C 690.29 299.65 699.43 302.10 708.09 303.92
  A 0.43 0.43 0.0 0 1 708.05 304.77
  C 695.76 306.05 684.31 306.67 672.32 312.09
  C 667.34 314.34 664.09 315.78 660.68 318.80
  A 0.06 0.06 0.0 0 0 660.72 318.90
  C 693.58 320.12 724.34 331.24 738.02 363.23
  C 738.87 365.23 739.43 368.22 739.46 370.73
  Q 739.77 392.93 739.51 415.12
  C 739.44 420.53 740.52 428.42 739.75 435.15
  Q 739.28 439.25 737.54 444.68
  C 732.77 459.59 726.62 473.83 717.21 486.20
  Q 713.19 491.48 704.73 499.75
  C 683.39 520.60 656.44 530.58 626.18 529.80
  A 0.42 0.42 0.0 0 0 626.04 530.62
  C 682.28 547.89 729.67 590.58 736.65 651.68
  C 738.11 664.52 737.79 675.82 736.69 688.70
  Q 736.29 693.48 734.82 697.61
  C 718.58 743.26 681.26 779.40 637.00 797.99
  C 592.55 816.67 542.58 820.36 495.03 811.65
  C 431.68 800.05 378.63 762.87 353.14 702.84
  C 347.87 690.43 348.29 674.95 348.83 661.72
  C 351.28 601.80 391.73 557.14 445.23 536.03
  Q 451.92 533.40 458.43 531.04
  Q 461.60 529.89 458.23 529.93
  Z
  M 473.02 338.18
  C 443.32 327.97 412.71 336.47 391.36 359.05
  C 390.29 360.17 389.35 361.92 388.53 363.26
  A 0.52 0.52 0.0 0 0 389.26 363.97
  C 410.22 350.21 436.06 340.79 461.32 340.07
  C 465.51 339.95 469.11 339.38 472.98 338.71
  Q 474.03 338.52 473.02 338.18
  Z
  M 607.07 338.96
  C 617.29 340.19 628.62 340.50 637.56 342.35
  C 656.77 346.35 672.81 353.66 689.72 363.38
  A 0.58 0.58 0.0 0 0 690.49 362.56
  C 678.45 344.70 654.19 334.80 633.68 333.85
  C 625.16 333.45 616.74 334.96 608.51 337.29
  Q 607.41 337.60 606.82 338.32
  Q 606.36 338.88 607.07 338.96
  Z
  M 374.73 464.48
  Q 378.26 477.65 384.11 489.99
  C 398.41 520.19 446.37 524.81 473.88 515.73
  C 496.95 508.12 510.42 485.43 520.01 464.54
  Q 525.67 452.23 527.27 440.76
  Q 527.57 438.56 529.86 431.28
  C 533.51 419.65 535.41 418.44 547.79 419.29
  C 558.59 420.03 560.92 435.85 563.45 443.68
  Q 565.13 448.87 565.59 450.71
  C 571.74 475.39 585.16 499.96 608.55 511.18
  C 642.71 527.55 689.54 519.61 707.56 482.81
  Q 710.56 476.67 713.83 463.88
  C 717.14 450.95 719.86 438.68 723.76 425.01
  Q 726.62 414.97 734.05 409.04
  C 735.16 408.15 735.97 406.37 735.98 404.94
  Q 736.04 395.46 735.97 386.00
  C 735.95 382.19 733.90 379.94 730.14 379.06
  C 717.47 376.10 704.04 371.23 692.64 368.94
  C 678.09 366.03 663.26 363.94 648.34 364.80
  C 623.03 366.26 591.21 376.31 561.30 380.54
  Q 538.48 383.77 515.99 378.82
  C 503.23 376.02 487.37 371.63 473.44 369.28
  C 452.70 365.77 432.96 363.55 411.78 365.77
  C 405.97 366.38 399.84 367.83 393.91 369.09
  C 379.36 372.18 364.96 376.10 350.45 379.30
  A 1.19 1.19 0.0 0 0 349.51 380.45
  C 349.45 389.27 347.96 402.38 353.52 409.48
  C 358.91 416.37 363.37 421.48 365.14 429.60
  Q 368.94 447.08 374.34 464.09
  Q 374.37 464.18 374.43 464.22
  Q 374.47 464.24 374.52 464.26
  Q 374.69 464.33 374.73 464.48
  Z
  M 518.95 549.14
  C 522.23 550.59 525.66 550.80 529.01 552.22
  Q 529.85 552.58 529.26 551.98
  Q 529.09 551.81 528.76 551.74
  C 525.86 548.27 523.96 545.25 518.52 544.92
  Q 513.99 544.65 513.57 548.92
  Q 513.49 549.64 514.14 549.33
  C 516.02 548.46 516.94 548.25 518.95 549.14
  Z
  M 567.56 546.12
  Q 559.40 542.53 555.40 550.23
  Q 555.20 550.61 554.82 550.82
  L 553.56 551.51
  Q 552.58 552.05 553.67 551.80
  Q 560.77 550.19 567.74 548.23
  Q 569.00 547.88 568.14 546.61
  A 1.37 1.35 84.8 0 0 567.56 546.12
  Z
  M 416.57 632.75
  C 419.61 678.28 466.68 706.74 506.49 715.25
  C 557.57 726.17 618.06 715.32 653.52 673.80
  Q 672.62 651.43 671.30 621.43
  A 0.42 0.42 0.0 0 0 670.46 621.38
  C 661.62 674.05 606.79 697.97 559.46 701.40
  C 532.87 703.32 508.03 700.76 482.84 691.63
  C 453.65 681.06 425.69 660.26 418.53 628.24
  Q 418.02 625.99 418.32 621.22
  Q 418.32 621.11 418.21 621.07
  Q 418.06 621.02 417.91 620.97
  Q 417.72 620.91 417.71 621.11
  Q 417.44 624.85 415.89 628.26
  Q 415.67 628.75 415.85 629.25
  Q 416.45 630.96 416.57 632.75
  Z"
/>
<path fill="#000000" d="
  M 473.02 338.18
  Q 474.03 338.52 472.98 338.71
  C 469.11 339.38 465.51 339.95 461.32 340.07
  C 436.06 340.79 410.22 350.21 389.26 363.97
  A 0.52 0.52 0.0 0 1 388.53 363.26
  C 389.35 361.92 390.29 360.17 391.36 359.05
  C 412.71 336.47 443.32 327.97 473.02 338.18
  Z"
/>
<path fill="#000000" d="
  M 607.07 338.96
  Q 606.36 338.88 606.82 338.32
  Q 607.41 337.60 608.51 337.29
  C 616.74 334.96 625.16 333.45 633.68 333.85
  C 654.19 334.80 678.45 344.70 690.49 362.56
  A 0.58 0.58 0.0 0 1 689.72 363.38
  C 672.81 353.66 656.77 346.35 637.56 342.35
  C 628.62 340.50 617.29 340.19 607.07 338.96
  Z"
/>
<path fill="#000000" d="
  M 374.52 464.26
  Q 374.47 464.24 374.43 464.22
  Q 374.37 464.18 374.34 464.09
  Q 368.94 447.08 365.14 429.60
  C 363.37 421.48 358.91 416.37 353.52 409.48
  C 347.96 402.38 349.45 389.27 349.51 380.45
  A 1.19 1.19 0.0 0 1 350.45 379.30
  C 364.96 376.10 379.36 372.18 393.91 369.09
  C 399.84 367.83 405.97 366.38 411.78 365.77
  C 432.96 363.55 452.70 365.77 473.44 369.28
  C 487.37 371.63 503.23 376.02 515.99 378.82
  Q 538.48 383.77 561.30 380.54
  C 591.21 376.31 623.03 366.26 648.34 364.80
  C 663.26 363.94 678.09 366.03 692.64 368.94
  C 704.04 371.23 717.47 376.10 730.14 379.06
  C 733.90 379.94 735.95 382.19 735.97 386.00
  Q 736.04 395.46 735.98 404.94
  C 735.97 406.37 735.16 408.15 734.05 409.04
  Q 726.62 414.97 723.76 425.01
  C 719.86 438.68 717.14 450.95 713.83 463.88
  Q 710.56 476.67 707.56 482.81
  C 689.54 519.61 642.71 527.55 608.55 511.18
  C 585.16 499.96 571.74 475.39 565.59 450.71
  Q 565.13 448.87 563.45 443.68
  C 560.92 435.85 558.59 420.03 547.79 419.29
  C 535.41 418.44 533.51 419.65 529.86 431.28
  Q 527.57 438.56 527.27 440.76
  Q 525.67 452.23 520.01 464.54
  C 510.42 485.43 496.95 508.12 473.88 515.73
  C 446.37 524.81 398.41 520.19 384.11 489.99
  Q 378.26 477.65 374.73 464.48
  Q 374.69 464.33 374.52 464.26
  Z
  M 422.16 504.75
  Q 431.21 507.33 440.65 507.42
  A 0.51 0.50 5.5 0 0 441.15 507.02
  L 466.64 378.68
  A 0.86 0.85 7.2 0 0 465.84 377.66
  L 447.33 376.81
  Q 446.19 376.75 445.97 377.87
  L 421.27 503.30
  A 1.26 1.26 0.0 0 0 422.16 504.75
  Z
  M 623.65 504.22
  C 628.06 506.94 636.65 507.37 641.49 507.51
  A 1.76 1.75 6.4 0 0 643.26 506.10
  L 668.34 380.06
  Q 668.46 379.46 667.85 379.40
  L 648.56 377.43
  Q 647.95 377.37 647.83 377.97
  L 623.25 503.29
  A 0.90 0.88 -68.8 0 0 623.65 504.22
  Z"
/>
<path fill="#ffffff" d="
  M 422.16 504.75
  A 1.26 1.26 0.0 0 1 421.27 503.30
  L 445.97 377.87
  Q 446.19 376.75 447.33 376.81
  L 465.84 377.66
  A 0.86 0.85 7.2 0 1 466.64 378.68
  L 441.15 507.02
  A 0.51 0.50 5.5 0 1 440.65 507.42
  Q 431.21 507.33 422.16 504.75
  Z"
/>
<path fill="#ffffff" d="
  M 623.65 504.22
  A 0.90 0.88 -68.8 0 1 623.25 503.29
  L 647.83 377.97
  Q 647.95 377.37 648.56 377.43
  L 667.85 379.40
  Q 668.46 379.46 668.34 380.06
  L 643.26 506.10
  A 1.76 1.75 6.4 0 1 641.49 507.51
  C 636.65 507.37 628.06 506.94 623.65 504.22
  Z"
/>
<path fill="#ffffff" d="
  M 227.22 470.54
  Q 230.75 468.61 231.83 464.75
  Q 231.97 464.25 232.31 463.85
  C 263.38 428.76 316.53 439.13 331.96 483.51
  Q 334.56 490.97 334.62 498.85
  A 1.43 1.39 65.7 0 1 334.29 499.76
  C 331.90 502.62 329.27 502.60 325.02 502.99
  Q 310.93 504.25 300.77 494.26
  Q 299.87 493.37 299.51 490.92
  Q 299.43 490.41 299.06 490.04
  Q 292.81 483.85 291.78 475.02
  A 0.88 0.87 -26.5 0 0 290.28 474.52
  C 287.01 477.89 284.89 481.91 284.25 486.73
  C 280.39 515.74 314.91 533.33 337.02 514.51
  C 339.24 512.62 341.14 509.30 343.67 506.98
  Q 344.13 506.55 344.34 507.15
  C 345.96 512.02 349.11 524.81 346.28 528.13
  C 339.27 536.36 333.44 543.44 323.63 548.56
  C 305.46 558.04 283.78 560.60 263.83 555.42
  C 216.83 543.19 188.68 493.48 210.33 447.92
  C 231.46 403.46 287.63 389.23 328.87 414.32
  A 2.90 2.89 -74.5 0 1 330.25 416.77
  Q 330.26 429.68 330.23 443.25
  Q 330.22 444.63 329.89 445.01
  Q 329.13 445.89 328.27 445.11
  C 318.03 435.73 308.87 429.24 294.92 426.40
  C 264.91 420.30 235.44 436.10 226.99 465.98
  Q 226.34 468.27 226.38 470.05
  A 0.57 0.57 0.0 0 0 227.22 470.54
  Z"
/>
<path fill="#ffffff" d="
  M 789.26 474.79
  Q 788.32 481.57 784.55 487.31
  Q 780.18 493.97 779.87 494.39
  C 773.73 502.53 760.20 504.26 750.97 502.32
  C 748.29 501.76 746.55 500.40 746.46 497.41
  C 746.04 483.29 754.80 466.88 765.22 457.55
  C 791.75 433.79 834.43 439.99 852.95 470.46
  A 0.69 0.69 0.0 0 0 854.22 469.99
  C 849.31 439.83 819.45 421.59 790.02 425.61
  Q 770.67 428.26 755.39 442.21
  A 1.13 1.13 0.0 0 1 753.50 441.44
  L 751.84 415.61
  A 2.72 2.72 0.0 0 1 753.21 413.07
  C 786.39 394.20 827.42 399.63 854.30 426.20
  C 870.14 441.85 878.93 464.20 876.84 486.50
  C 873.37 523.45 843.45 551.93 807.40 557.19
  C 783.36 560.70 760.65 553.61 741.38 538.57
  Q 738.81 536.56 738.68 533.83
  C 738.44 528.32 738.19 517.76 740.68 512.84
  Q 740.93 512.34 741.39 512.66
  C 744.34 514.70 747.31 517.19 750.20 518.69
  C 771.07 529.47 796.55 515.05 797.13 491.41
  C 797.29 484.53 795.28 479.12 790.58 474.36
  A 0.78 0.77 26.9 0 0 789.26 474.79
  Z"
/>
<path fill="#000000" d="
  M 518.95 549.14
  C 516.94 548.25 516.02 548.46 514.14 549.33
  Q 513.49 549.64 513.57 548.92
  Q 513.99 544.65 518.52 544.92
  C 523.96 545.25 525.86 548.27 528.76 551.74
  Q 529.09 551.81 529.26 551.98
  Q 529.85 552.58 529.01 552.22
  C 525.66 550.80 522.23 550.59 518.95 549.14
  Z"
/>
<path fill="#000000" d="
  M 567.56 546.12
  A 1.37 1.35 84.8 0 1 568.14 546.61
  Q 569.00 547.88 567.74 548.23
  Q 560.77 550.19 553.67 551.80
  Q 552.58 552.05 553.56 551.51
  L 554.82 550.82
  Q 555.20 550.61 555.40 550.23
  Q 559.40 542.53 567.56 546.12
  Z"
/>
<path fill="#000000" d="
  M 506.49 715.25
  C 466.68 706.74 419.61 678.28 416.57 632.75
  Q 416.45 630.96 415.85 629.25
  Q 415.67 628.75 415.89 628.26
  Q 417.44 624.85 417.71 621.11
  Q 417.72 620.91 417.91 620.97
  Q 418.06 621.02 418.21 621.07
  Q 418.32 621.11 418.32 621.22
  Q 418.02 625.99 418.53 628.24
  C 425.69 660.26 453.65 681.06 482.84 691.63
  C 508.03 700.76 532.87 703.32 559.46 701.40
  C 606.79 697.97 661.62 674.05 670.46 621.38
  A 0.42 0.42 0.0 0 1 671.30 621.43
  Q 672.62 651.43 653.52 673.80
  C 618.06 715.32 557.57 726.17 506.49 715.25
  Z"
/>
<path fill="#000000" d="
  M 659.76 958.31
  Q 659.47 958.83 658.90 958.66
  Q 658.40 958.51 658.22 957.49
  Q 654.78 937.79 647.32 919.34
  C 637.98 896.21 626.26 873.44 613.35 852.15
  A 0.41 0.41 0.0 0 1 613.67 851.53
  C 632.56 849.82 649.74 843.73 667.71 835.16
  C 702.38 818.64 734.85 796.27 764.68 772.20
  C 765.34 771.67 766.47 771.17 767.20 770.76
  A 0.46 0.46 0.0 0 1 767.85 771.35
  C 757.30 795.23 744.09 817.97 730.92 840.43
  Q 700.66 892.02 668.92 942.72
  Q 664.34 950.04 659.76 958.31
  Z"
/>
<path fill="#000000" d="
  M 472.20 852.48
  A 1.06 1.06 0.0 0 1 473.03 854.08
  C 454.00 886.25 434.44 922.95 428.63 960.02
  Q 428.50 960.86 428.04 960.14
  C 397.70 912.19 368.55 863.66 340.52 814.32
  C 332.81 800.74 324.60 786.78 319.26 772.29
  Q 318.55 770.38 320.13 771.67
  Q 358.34 802.95 400.06 826.70
  C 421.85 839.11 447.30 850.37 472.20 852.48
  Z"
/>
<path fill="#000000" d="
  M 553.73 922.50
  L 531.29 922.50
  Q 530.80 922.50 530.43 922.81
  Q 507.84 942.05 478.45 947.06
  Q 477.89 947.16 477.73 946.60
  Q 474.12 933.32 472.13 919.68
  C 468.61 895.55 471.69 872.76 477.71 849.84
  Q 477.84 849.36 478.34 849.44
  Q 507.70 854.14 530.14 873.42
  Q 530.52 873.75 531.02 873.75
  L 553.81 873.75
  Q 554.38 873.75 554.81 873.38
  Q 577.11 854.41 606.09 849.39
  Q 606.58 849.31 606.83 849.74
  Q 607.54 850.97 607.94 852.40
  Q 614.02 874.49 614.71 897.32
  C 614.90 903.42 613.85 909.72 613.21 915.96
  Q 611.59 931.79 606.94 946.69
  A 0.86 0.86 0.0 0 1 605.92 947.27
  C 586.55 942.57 570.01 936.31 555.01 922.98
  A 1.95 1.95 0.0 0 0 553.73 922.50
  Z"
/>
</svg>
