<svg width="21" height="27" viewBox="0 0 21 27" fill="none" xmlns="http://www.w3.org/2000/svg">
  <g clip-path="url(#clip0_48_48)">
    <path d="M8.03646 5.47398C6.94271 7.25002 6.3125 9.34377 6.3125 11.5834C6.3125 16.6875 9.58333 21.0313 14.1458 22.6094C13.5 22.7552 12.8281 22.8334 12.1354 22.8334C7.09375 22.8334 3 18.7344 3 13.6667C3 10.0781 5.05208 6.97919 8.04167 5.47398H8.03646ZM11.2708 2.03648C5.24479 2.47919 0.5 7.51565 0.5 13.6667C0.5 20.1094 5.70833 25.3334 12.1406 25.3334C14.6302 25.3334 16.9323 24.5521 18.8281 23.2188C18.9271 23.1511 19.0208 23.0781 19.1146 23.0104C19.3646 22.8229 19.6042 22.625 19.8385 22.4167C19.9792 22.2917 20.1146 22.1667 20.25 22.0365C20.5104 21.7813 20.5781 21.3854 20.4115 21.0625C20.2448 20.7396 19.8854 20.5573 19.526 20.6198C19.3333 20.6511 19.1406 20.6823 18.9479 20.7031C18.6875 20.7292 18.4219 20.75 18.151 20.7552C18.0885 20.7552 18.0208 20.7552 17.9583 20.7552C17.9531 20.7552 17.9479 20.7552 17.9427 20.7552C12.901 20.7448 8.81771 16.6459 8.81771 11.5886C8.81771 8.7344 10.1146 6.18752 12.1562 4.50523C12.2083 4.45835 12.2656 4.41669 12.3229 4.36981C12.5312 4.20315 12.75 4.0469 12.974 3.90106C13.1354 3.7969 13.3021 3.69273 13.474 3.59898C13.7917 3.41669 13.9531 3.0521 13.875 2.69794C13.7969 2.34377 13.4948 2.07815 13.1302 2.0469C12.9427 2.03127 12.7604 2.02085 12.5729 2.01565C12.4323 2.01044 12.2865 2.01044 12.1458 2.01044C11.974 2.01044 11.8073 2.01565 11.6354 2.02085C11.5156 2.02606 11.3958 2.03127 11.276 2.04169L11.2708 2.03648Z" fill="white"/>
  </g>
  <defs>
    <clipPath id="clip0_48_48">
      <rect width="20" height="26.6667" fill="white" transform="translate(0.5 0.333374)"/>
    </clipPath>
  </defs>
</svg>
