<svg width="31" height="31" viewBox="0 0 31 31" fill="none" xmlns="http://www.w3.org/2000/svg">
<path id="Vector" d="M26.0067 4.85937C23.2009 2.04687 19.4643 0.5 15.4933 0.5C7.29687 0.5 0.627232 7.16964 0.627232 15.3661C0.627232 17.9844 1.31027 20.5424 2.60938 22.7991L0.5 30.5L8.3817 28.4308C10.5513 29.6161 12.9955 30.2388 15.4866 30.2388H15.4933C23.683 30.2388 30.5 23.5692 30.5 15.3728C30.5 11.4018 28.8125 7.67187 26.0067 4.85937ZM15.4933 27.7344C13.2701 27.7344 11.0937 27.1384 9.19866 26.0134L8.75 25.7455L4.07589 26.971L5.32143 22.4107L5.02679 21.942C3.78795 19.9732 3.13839 17.7031 3.13839 15.3661C3.13839 8.5558 8.68303 3.01116 15.5 3.01116C18.8013 3.01116 21.9018 4.29687 24.2321 6.63393C26.5625 8.97098 27.9955 12.0714 27.9888 15.3728C27.9888 22.1897 22.3036 27.7344 15.4933 27.7344ZM22.2701 18.4799C21.9018 18.2924 20.0737 17.3951 19.7321 17.2746C19.3906 17.1473 19.1429 17.0871 18.8951 17.4621C18.6473 17.8371 17.9375 18.6674 17.7165 18.9219C17.5022 19.1696 17.2812 19.2031 16.9129 19.0156C14.7299 17.9241 13.2969 17.067 11.8571 14.596C11.4754 13.9397 12.2388 13.9866 12.9487 12.567C13.0692 12.3192 13.0089 12.1049 12.9152 11.9174C12.8214 11.7299 12.0781 9.90179 11.7701 9.15848C11.4688 8.43527 11.1607 8.53571 10.933 8.52232C10.7188 8.50893 10.471 8.50893 10.2232 8.50893C9.97545 8.50893 9.57366 8.60268 9.23214 8.97098C8.89062 9.34598 7.93304 10.2433 7.93304 12.0714C7.93304 13.8996 9.26562 15.6674 9.44643 15.9152C9.63393 16.1629 12.0647 19.9129 15.7946 21.5268C18.1518 22.5446 19.0759 22.6317 20.2545 22.4576C20.971 22.3504 22.4509 21.5603 22.7589 20.6897C23.067 19.8192 23.067 19.0759 22.9732 18.9219C22.8862 18.7545 22.6384 18.6607 22.2701 18.4799Z" fill="white"/>
</svg>
